<?xml version="1.0" standalone="no"?>
<!DOCTYPE svg PUBLIC "-//W3C//DTD SVG 20010904//EN"
 "http://www.w3.org/TR/2001/REC-SVG-20010904/DTD/svg10.dtd">
<svg version="1.0" xmlns="http://www.w3.org/2000/svg"
 width="1000.000000pt" height="1000.000000pt" viewBox="0 0 1000.000000 1000.000000"
 preserveAspectRatio="xMidYMid meet">

<g transform="translate(0.000000,1000.000000) scale(0.100000,-0.100000)"
fill="#000000" stroke="none">
<path d="M4070 8395 l0 -185 -100 0 -100 0 -2 -227 -3 -228 -87 -3 -88 -3 -2
228 -3 228 -34 5 -34 5 2 107 2 108 -1113 0 -1114 0 -73 -74 -73 -73 3 -1064
c1 -585 5 -1085 7 -1111 l4 -47 117 -3 116 -3 3 -191 c2 -189 3 -192 25 -198
12 -3 34 -6 50 -6 26 0 27 -2 27 -49 l0 -50 -47 -3 -48 -3 -3 -263 -2 -264 47
3 48 3 3 -57 3 -57 382 2 382 3 -2 613 -1 612 64 0 64 0 0 335 0 334 -122 3
-123 3 -3 98 -3 97 241 0 240 0 0 -42 0 -43 418 2 c229 0 468 2 530 2 l112 1
0 170 0 170 70 0 70 0 0 -230 0 -230 -40 0 c-32 0 -40 -4 -40 -19 0 -10 -6
-24 -14 -30 -20 -17 -46 -3 -46 25 l0 24 -529 2 -529 3 -3 -530 c-4 -575 -2
-718 12 -709 5 3 40 2 79 -2 l70 -7 2 -301 3 -301 395 0 c344 0 395 2 396 15
3 40 4 41 42 38 32 -3 37 -7 40 -30 3 -25 7 -28 43 -28 l39 0 0 -50 0 -50 -55
0 -55 0 0 -36 c0 -33 -2 -35 -27 -32 -20 2 -29 9 -31 26 l-3 22 -485 0 -484 0
0 -275 0 -275 -550 0 -550 0 0 -24 c0 -19 -7 -25 -34 -30 -18 -4 -41 -4 -50 0
-19 7 -18 15 -20 -183 l-1 -142 50 -3 50 -3 0 -50 0 -50 -52 -3 -53 -3 0 -254
0 -254 53 -3 52 -3 3 -52 3 -52 -53 -3 -53 -3 -3 -257 -2 -257 52 -3 53 -3 3
-52 3 -53 -55 0 -56 0 0 -260 0 -260 40 0 40 0 0 -49 c0 -34 4 -51 15 -55 12
-4 15 5 15 49 l0 55 54 0 55 0 3 -52 3 -53 255 0 c197 0 255 3 256 13 1 6 2
30 3 52 l1 40 55 0 55 0 0 -52 0 -53 257 2 258 2 3 51 3 50 55 0 54 0 0 -52 0
-53 247 2 c161 2 251 -1 259 -8 22 -18 34 0 34 47 0 42 1 44 29 44 26 0 30 -4
33 -32 l3 -33 273 -2 272 -3 0 35 c0 34 1 35 40 35 39 0 40 -1 40 -34 l0 -33
161 -2 c111 -2 165 1 175 10 10 8 14 34 14 89 l0 78 98 4 c63 2 105 8 115 16
14 12 16 69 14 530 l-2 517 -220 7 c-121 4 -291 9 -377 12 -100 4 -159 2 -163
-4 -9 -15 -408 -13 -423 2 -7 7 -12 27 -12 45 0 32 -1 33 -45 33 l-45 0 0 60
0 60 45 0 45 0 0 248 0 248 -41 -4 c-23 -3 -44 0 -48 6 -3 5 -4 33 -2 62 l3
52 44 -4 44 -3 0 37 0 38 -185 0 -185 0 0 104 0 103 -27 -1 c-23 -1 -29 4 -31
25 l-3 27 253 7 c139 3 325 5 413 3 l160 -3 0 -30 c0 -25 -5 -31 -30 -35 l-30
-5 0 -120 0 -120 109 -3 c61 -1 115 -7 122 -13 7 -6 22 -8 34 -4 20 6 20 3 20
-184 l0 -191 315 0 315 0 0 320 0 320 -357 2 -358 3 0 30 0 30 121 5 120 5 49
43 c47 41 52 43 105 41 53 -3 55 -2 58 24 2 15 8 27 13 27 5 0 9 247 9 630 l0
630 -355 0 -355 0 0 -55 0 -55 -59 0 c-50 0 -59 -3 -64 -20 -4 -15 -14 -20
-40 -20 l-34 0 -5 83 c-2 45 -2 105 0 134 l4 51 711 -1 712 -2 3 -27 c2 -20
-1 -28 -12 -28 -14 0 -16 -67 -16 -650 l0 -650 430 0 429 0 3 128 3 127 113 3
112 3 0 45 0 44 198 -2 197 -3 0 -80 0 -80 -42 -3 -43 -3 0 -120 0 -119 -700
0 -700 0 0 -85 0 -85 -65 0 -65 0 0 -255 0 -255 -30 0 -30 0 0 -345 0 -345 30
0 30 0 0 -200 0 -200 150 0 150 0 0 -55 0 -55 -40 0 -40 0 0 -49 c0 -28 -4
-53 -10 -56 -6 -4 -10 -65 -10 -151 0 -89 4 -144 10 -144 6 0 10 -28 10 -64
l0 -65 38 -3 c37 -3 37 -3 42 -53 l5 -50 215 0 215 0 5 50 5 50 50 0 50 0 3
-53 3 -52 257 2 257 3 3 53 3 53 52 -3 52 -3 3 -52 3 -53 412 0 c227 0 487 3
579 6 l167 7 4 26 4 26 2 -27 c0 -18 7 -28 16 -28 11 0 15 12 15 45 l0 45 65
0 65 0 0 358 c0 196 -3 455 -7 574 l-6 217 -46 3 -46 3 -3 53 -3 52 50 0 51 0
0 264 0 265 -47 3 -48 3 0 50 0 50 48 3 47 3 0 265 0 264 -51 0 -50 0 3 53 3
52 48 3 c46 3 47 4 47 38 l0 34 -50 0 -50 0 0 39 c0 63 7 71 56 71 l44 0 0
259 0 260 -47 3 -48 3 0 50 0 50 48 3 47 3 -2 97 -2 97 -6 -95 -6 -95 -3 80
c-2 44 -3 83 -2 88 1 6 -131 11 -145 5 -9 -5 -26 31 -19 42 3 6 46 10 96 10
l89 0 0 45 0 44 -82 3 -83 3 0 300 0 300 -537 3 c-456 2 -538 0 -538 -12 0
-17 -27 -29 -35 -16 -4 6 -17 10 -31 10 -13 0 -24 5 -24 10 0 6 -45 10 -115
10 l-115 0 0 269 0 270 -32 3 c-31 3 -33 6 -36 46 -2 23 -7 42 -13 42 -20 0
-8 29 14 32 l22 3 3 533 2 532 -139 0 -140 0 -3 78 -3 77 -37 3 -38 3 0 -40 0
-41 -55 0 c-52 0 -55 2 -55 24 0 58 11 56 -276 56 l-264 0 0 -40 0 -40 -55 0
-55 0 0 40 0 40 -235 0 -235 0 0 -50 0 -50 -54 0 -53 0 -7 77 c-3 42 -6 111
-6 155 l0 78 -61 0 -60 0 2 78 2 77 -126 3 -127 3 0 -186z m239 171 c-11 -9
-219 -15 -219 -6 0 6 45 10 112 10 61 0 109 -2 107 -4z m-2 -78 c-3 -7 -5 -2
-5 12 0 14 2 19 5 13 2 -7 2 -19 0 -25z m-2629 -330 l-3 -53 -92 -3 -93 -3 0
56 0 55 96 0 95 0 -3 -52z m1012 -3 l0 -56 -57 3 -58 3 -3 53 -3 52 60 0 61 0
0 -55z m1955 -405 c7 -41 10 -252 8 -562 l-3 -498 95 0 96 0 -3 -67 -3 -68
-148 -3 -149 -3 -71 77 -71 76 -3 551 c-1 303 0 554 3 559 3 5 58 7 122 6
l117 -3 10 -65z m1492 -542 c-1 -90 -3 -17 -3 162 0 179 2 252 3 163 2 -90 2
-236 0 -325z m-2859 465 c-16 -2 -40 -2 -55 0 -16 2 -3 4 27 4 30 0 43 -2 28
-4z m-115 -310 c-13 -2 -33 -2 -45 0 -13 2 -3 4 22 4 25 0 35 -2 23 -4z m110
0 c-13 -2 -35 -2 -50 0 -16 2 -5 4 22 4 28 0 40 -2 28 -4z m-1193 -53 c0 -5
-5 -10 -11 -10 -5 0 -7 5 -4 10 3 6 8 10 11 10 2 0 4 -4 4 -10z m-460 -380 l0
-190 -80 0 -80 0 0 190 0 190 80 0 80 0 0 -190z m4217 43 c4 -9 1 -19 -5 -21
-9 -3 -12 -121 -12 -473 l0 -469 60 0 60 0 0 -100 0 -100 -160 0 -160 0 0
-129 c0 -127 0 -130 23 -133 14 -2 23 -11 25 -25 3 -22 0 -23 -52 -23 l-56 0
0 185 0 185 85 0 85 0 0 340 0 340 -228 0 c-126 0 -231 2 -233 4 -2 2 -2 34
-1 70 l4 65 71 3 72 3 5 130 5 130 153 3 c126 2 152 5 152 17 0 23 98 21 107
-2z m-1894 -13 c3 -11 1 -20 -4 -20 -5 0 -9 9 -9 20 0 11 2 20 4 20 2 0 6 -9
9 -20z m390 -161 c-4 -4 -6 20 -3 54 l5 62 3 -54 c2 -30 0 -58 -5 -62z m-383
70 c0 -5 -4 -9 -10 -9 -5 0 -10 7 -10 16 0 8 5 12 10 9 6 -3 10 -10 10 -16z
m40 17 c0 -2 -7 -7 -16 -10 -8 -3 -12 -2 -9 4 6 10 25 14 25 6z m-2247 -123
c-7 -2 -19 -2 -25 0 -7 3 -2 5 12 5 14 0 19 -2 13 -5z m5605 -656 c12 -3 11
-5 -5 -6 -23 -1 -23 1 -21 102 l2 102 3 -97 c3 -81 6 -97 21 -101z m135 186
c-24 -2 -62 -2 -85 0 -24 2 -5 4 42 4 47 0 66 -2 43 -4z m74 -90 c-2 -16 -4
-3 -4 27 0 30 2 43 4 28 2 -16 2 -40 0 -55z m13 -93 c0 -5 -12 -10 -27 -9
l-28 1 25 8 c14 4 26 8 28 9 1 1 2 -3 2 -9z m-5213 -72 c-3 -7 -5 -2 -5 12 0
14 2 19 5 13 2 -7 2 -19 0 -25z m4144 20 c0 -7 0 -52 -1 -100 l-1 -87 56 -53
c31 -28 65 -58 75 -65 16 -11 20 -26 20 -73 l0 -60 308 -2 c299 -3 307 -3 307
-23 0 -20 -8 -20 -342 -23 l-343 -2 0 -95 0 -95 -202 2 -203 3 -5 35 -5 35
-114 3 c-103 2 -114 4 -118 22 -5 18 -14 20 -78 20 -50 0 -75 4 -78 13 -10 29
6 37 78 37 73 0 74 0 77 28 l3 27 182 5 181 5 0 195 0 195 61 3 c53 3 61 6 61
22 0 13 7 20 19 20 11 0 23 5 26 10 9 14 35 12 36 -2z m-2834 -220 c-3 -7 -5
-2 -5 12 0 14 2 19 5 13 2 -7 2 -19 0 -25z m-940 -60 c-2 -18 -4 -6 -4 27 0
33 2 48 4 33 2 -15 2 -42 0 -60z m4483 -63 l0 -85 -216 0 c-148 0 -213 3 -209
10 5 8 73 9 211 5 l204 -6 0 80 c0 45 2 81 5 81 3 0 5 -38 5 -85z m-4447 -108
c18 -4 17 -5 -5 -6 -25 -1 -28 2 -27 32 2 29 2 29 6 5 3 -18 12 -28 26 -31z
m4977 -587 c0 -137 -3 -250 -7 -250 -5 0 -7 110 -5 244 l3 245 -33 4 c-33 4
-33 4 5 5 l37 2 0 -250z m-473 -347 c-2 -21 -4 -4 -4 37 0 41 2 58 4 38 2 -21
2 -55 0 -75z m130 15 c-2 -18 -4 -4 -4 32 0 36 2 50 4 33 2 -18 2 -48 0 -65z
m61 -95 c-10 -2 -26 -2 -35 0 -10 3 -2 5 17 5 19 0 27 -2 18 -5z m120 0 c-10
-2 -28 -2 -40 0 -13 2 -5 4 17 4 22 1 32 -1 23 -4z m69 1 c-3 -3 -12 -4 -19
-1 -8 3 -5 6 6 6 11 1 17 -2 13 -5z m93 -384 c0 -137 -3 -250 -7 -250 -5 0 -7
110 -5 244 l3 245 -38 4 -38 4 43 1 42 2 0 -250z m-380 209 c0 -5 -4 -9 -10
-9 -5 0 -10 7 -10 16 0 8 5 12 10 9 6 -3 10 -10 10 -16z m-2070 -464 c0 -30
-3 -55 -7 -55 -5 0 -6 25 -5 55 5 71 12 71 12 0z m-38 -42 c0 -32 2 -76 2 -98
l1 -40 457 -3 457 -2 3 27 3 28 283 3 282 2 0 -30 c0 -24 -8 -35 -40 -55 l-40
-25 0 -215 0 -215 40 -26 c31 -21 40 -33 40 -55 l0 -29 -282 2 -283 3 -3 278
-2 277 -338 -2 -337 -3 -3 -508 c-2 -400 -5 -508 -15 -504 -9 3 -13 118 -15
511 l-2 507 -103 -3 -102 -3 -3 -307 -2 -308 -35 0 -35 0 0 418 c0 230 3 422
7 425 3 4 19 7 35 7 27 0 28 -1 30 -57z m2445 51 c-3 -3 -12 -4 -19 -1 -8 3
-5 6 6 6 11 1 17 -2 13 -5z m-2220 -71 c-3 -10 -5 -4 -5 12 0 17 2 24 5 18 2
-7 2 -21 0 -30z m-142 -45 l50 -3 -58 -5 c-52 -5 -57 -3 -57 15 0 13 3 16 8 8
4 -6 30 -13 57 -15z m2402 -420 c-1 -62 -3 -14 -3 107 0 121 2 172 3 113 2
-59 2 -158 0 -220z m0 -295 c-3 -10 -5 -2 -5 17 0 19 2 27 5 18 2 -10 2 -26 0
-35z m-4167 -518 c0 -32 -2 -35 -30 -35 -28 0 -30 3 -30 35 0 32 2 35 30 35
28 0 30 -3 30 -35z m4178 -422 l-2 -138 -6 130 c-3 72 -4 133 -2 138 10 23 12
-7 10 -130z m-351 -150 c-2 -16 -4 -3 -4 27 0 30 2 43 4 28 2 -16 2 -40 0 -55z"/>
<path d="M3690 3645 l0 -355 214 0 c118 0 217 4 220 9 3 4 6 163 6 352 l1 344
-220 3 -221 2 0 -355z"/>
<path d="M4227 1913 c-4 -3 -7 -37 -7 -74 l0 -68 53 -3 52 -3 3 -108 3 -108
122 3 122 3 3 183 2 182 -173 0 c-96 0 -177 -3 -180 -7z m321 -10 c-10 -2 -26
-2 -35 0 -10 3 -2 5 17 5 19 0 27 -2 18 -5z m-75 -10 c-7 -2 -19 -2 -25 0 -7
3 -2 5 12 5 14 0 19 -2 13 -5z m-126 -170 c-3 -10 -5 -4 -5 12 0 17 2 24 5 18
2 -7 2 -21 0 -30z"/>
</g>
</svg>
