<?xml version="1.0" standalone="no"?>
<!DOCTYPE svg PUBLIC "-//W3C//DTD SVG 20010904//EN"
 "http://www.w3.org/TR/2001/REC-SVG-20010904/DTD/svg10.dtd">
<svg version="1.0" xmlns="http://www.w3.org/2000/svg"
 width="1000.000000pt" height="1000.000000pt" viewBox="0 0 1000.000000 1000.000000"
 preserveAspectRatio="xMidYMid meet">

<g transform="translate(0.000000,1000.000000) scale(0.100000,-0.100000)"
fill="#000000" stroke="none">
<path d="M3960 9526 l0 -323 115 -59 c69 -35 115 -65 115 -74 0 -8 14 -23 32
-33 19 -11 28 -21 21 -25 -6 -4 -41 -67 -77 -140 -60 -120 -69 -133 -89 -129
-12 3 -49 8 -82 12 l-60 6 -141 -118 c-77 -65 -169 -144 -205 -177 -35 -32
-82 -66 -105 -76 -23 -10 -61 -41 -88 -74 -27 -31 -63 -65 -82 -76 -21 -14
-51 -52 -83 -108 -28 -48 -51 -92 -51 -98 0 -5 20 -20 45 -32 25 -12 45 -26
45 -30 0 -5 -12 -22 -27 -38 -32 -35 -326 -611 -318 -624 8 -13 -27 -80 -42
-80 -13 0 -223 -419 -223 -444 0 -7 -5 -28 -11 -45 -9 -27 -15 -32 -34 -27
-16 4 -62 -15 -156 -65 -74 -39 -296 -154 -494 -256 -198 -102 -370 -191 -383
-199 l-22 -14 0 -1376 0 -1375 392 -787 c216 -433 392 -788 393 -789 2 -8 617
295 669 331 21 14 42 26 46 26 12 0 33 -58 25 -69 -3 -6 127 -274 289 -596
162 -322 296 -591 299 -598 3 -8 24 -2 68 20 86 43 311 163 434 230 650 359
895 487 940 493 35 4 40 9 43 33 3 21 9 27 28 27 20 0 24 -5 24 -30 l0 -30
215 0 215 0 0 160 c0 131 3 160 14 160 8 0 16 -5 18 -12 4 -10 120 -13 491
-16 l487 -4 0 224 c0 161 3 227 12 236 16 16 828 17 828 2 0 -6 -63 -10 -170
-10 l-170 0 0 -248 0 -247 -219 -219 c-191 -191 -218 -221 -208 -237 9 -15 7
-23 -12 -43 -19 -21 -26 -23 -42 -13 -17 10 -33 -2 -139 -108 -106 -106 -118
-121 -105 -134 13 -13 12 -18 -11 -42 -22 -23 -29 -26 -45 -16 -17 10 -33 -2
-141 -110 -106 -106 -120 -124 -108 -138 11 -13 9 -20 -15 -45 -25 -27 -30
-28 -45 -15 -14 13 -29 2 -139 -109 -75 -75 -119 -126 -112 -130 6 -4 9 -17 6
-29 -4 -18 44 -71 255 -287 225 -231 261 -264 277 -254 13 8 23 8 34 1 14 -9
40 11 143 108 120 113 125 119 109 137 -16 18 -15 20 10 45 25 25 27 26 45 10
17 -16 24 -10 142 108 123 123 124 124 105 145 -18 20 -18 21 8 47 26 26 27
27 47 8 21 -19 22 -18 142 103 121 120 122 121 103 142 -18 20 -18 21 5 45 27
29 37 31 60 10 14 -13 47 17 338 310 l323 325 180 0 c172 0 181 1 186 20 3 11
9 20 14 20 5 0 9 7 9 15 0 8 9 15 20 15 18 0 20 7 20 65 0 58 -2 65 -20 65
-19 0 -20 7 -20 250 l0 250 -25 0 c-24 0 -25 2 -25 68 0 73 22 124 43 103 6
-6 14 -11 18 -11 4 0 44 41 89 92 60 68 80 97 76 112 -3 12 3 31 14 44 15 18
28 22 78 22 51 0 60 -3 65 -20 5 -19 14 -20 135 -20 121 0 130 1 135 20 5 18
14 20 77 20 l71 0 -2 82 c-2 78 -1 83 19 86 21 3 22 7 22 153 l0 149 -25 0
c-14 0 -25 4 -25 10 0 6 -146 11 -402 12 l-402 3 -163 325 c-90 179 -163 331
-163 338 0 35 30 2 68 -73 l42 -85 460 0 460 0 0 473 0 474 -66 139 c-37 76
-125 253 -198 391 l-131 253 -167 0 -168 0 0 300 0 300 78 0 77 1 293 587
c161 323 293 592 292 597 -1 10 -783 400 -801 400 -5 0 -51 -79 -103 -175
l-93 -175 -179 0 -179 0 -3 188 -2 187 -495 0 -495 0 -319 159 c-175 88 -321
157 -325 154 -3 -4 -6 -1 -6 6 0 7 -4 9 -10 6 -6 -3 -10 -1 -10 4 0 6 -31 27
-70 46 l-70 35 0 575 0 575 -465 0 c-303 0 -465 -3 -465 -10 0 -5 -4 -10 -10
-10 -6 0 -10 43 -10 110 l0 110 -121 0 c-77 0 -118 4 -114 10 3 6 37 10 76 10
l69 0 0 225 0 225 -420 0 -420 0 0 -324z m630 294 c0 -18 -7 -20 -65 -20 -58
0 -65 2 -65 20 0 18 7 20 65 20 58 0 65 -2 65 -20z m135 -5 c0 -21 -5 -25 -27
-25 -23 0 -28 4 -28 25 0 21 5 25 28 25 22 0 27 -4 27 -25z m65 2 c0 -30 -6
-36 -31 -30 -12 3 -19 14 -19 29 0 19 5 24 25 24 20 0 25 -5 25 -23z m-10
-337 c0 -57 -1 -60 -25 -60 -24 0 -25 3 -25 60 0 57 1 60 25 60 24 0 25 -3 25
-60z m-535 -40 c-2 -13 2 -20 11 -20 8 0 14 -4 14 -10 0 -5 25 -10 55 -10 30
0 55 -4 55 -9 0 -5 12 -11 26 -13 26 -3 27 -5 26 -66 l0 -62 152 -79 c203
-107 184 -91 164 -135 -10 -20 -23 -36 -30 -36 -10 0 -10 2 0 9 7 4 14 14 15
22 2 8 6 19 10 25 9 15 -11 28 -173 109 -73 37 -140 73 -147 81 -8 8 -19 14
-24 14 -6 0 -7 5 -4 10 4 6 -8 10 -29 10 -19 0 -38 5 -41 10 -9 15 -25 12 -25
-5 0 -21 -18 -18 -75 13 l-50 27 -3 68 -3 67 40 0 c34 0 39 -3 36 -20z m635
-155 c0 -63 -1 -65 -25 -65 -24 0 -25 2 -25 65 0 63 1 65 25 65 24 0 25 -2 25
-65z m34 -311 c11 -29 6 -44 -70 -199 l-75 -155 -37 16 c-20 9 -47 20 -59 25
-28 11 -29 24 -3 74 27 52 25 60 -10 75 -16 7 -30 14 -30 16 0 8 70 144 74
144 3 0 -10 -32 -27 -71 -27 -59 -29 -72 -17 -79 23 -15 29 -9 68 65 20 39 36
71 37 72 1 2 29 6 63 9 34 4 59 11 56 15 -3 5 1 9 9 9 8 0 18 -7 21 -16z
m-825 -270 l134 -17 -8 -71 c-4 -39 -7 -84 -7 -100 l1 -29 -62 7 c-84 8 -431
57 -435 61 -2 1 43 41 100 88 72 60 109 85 123 82 11 -2 80 -12 154 -21z
m1635 -138 c105 -47 119 -56 87 -53 -11 1 -21 5 -21 10 0 4 -4 5 -10 2 -5 -3
-10 -1 -10 4 0 6 -4 10 -8 9 -7 -3 -45 13 -115 49 -16 8 -29 13 -30 11 -1 -1
-8 -13 -14 -25 -9 -15 -13 -66 -13 -147 l0 -124 -54 4 -55 5 -20 -47 c-12 -26
-21 -49 -21 -53 0 -3 73 -39 163 -79 184 -84 281 -133 252 -130 -11 2 -26 9
-33 16 -8 7 -18 10 -23 7 -5 -4 -9 -1 -9 5 0 6 -4 8 -10 5 -5 -3 -10 -2 -10 2
0 9 -69 39 -82 35 -5 -1 -8 3 -8 9 0 5 -4 8 -9 5 -5 -4 -11 -3 -13 1 -1 5 -50
30 -108 56 -58 26 -110 51 -117 55 -9 6 7 51 58 162 39 85 80 176 92 203 11
26 26 47 32 47 7 0 55 -20 109 -44z m-1281 -488 c32 -12 56 -26 54 -32 -2 -6
-15 -41 -28 -79 -24 -66 -25 -67 -54 -61 -16 3 -51 14 -77 24 -33 12 -48 14
-48 6 0 -9 -130 -46 -161 -46 -4 0 -14 34 -24 75 -9 41 -17 78 -18 82 -2 8
116 42 149 43 18 0 23 -9 33 -60 7 -33 14 -60 16 -60 2 0 14 32 27 71 25 79
18 77 131 37z m653 -135 c-3 -8 -2 -12 3 -8 12 7 54 -62 48 -79 -3 -8 -40 -35
-83 -62 l-77 -48 -23 30 c-29 36 -70 112 -64 117 3 2 41 27 85 56 l80 52 18
-22 c10 -12 15 -29 13 -36z m1004 -68 c0 -3 -11 -28 -25 -55 l-25 -49 -52 24
-53 24 -21 -42 c-12 -23 -25 -41 -29 -40 -16 3 -22 26 -16 51 6 23 20 30 107
58 109 35 114 36 114 29z m-2415 -82 c21 -10 35 -24 35 -35 0 -13 34 -35 125
-80 69 -35 125 -66 125 -70 0 -4 -75 -160 -166 -345 l-166 -338 -5 -192 -6
-193 142 0 141 0 0 -45 c0 -42 -2 -45 -27 -45 l-28 0 0 -90 0 -90 33 0 c28 0
32 -3 32 -25 l0 -25 113 0 112 0 53 -46 52 -47 0 -158 0 -159 -40 0 -40 0 0
-175 0 -175 43 0 42 0 -3 -156 -3 -156 -47 -44 -47 -43 -122 -1 -123 0 0 -30
0 -30 -70 0 c-56 0 -70 3 -70 15 0 13 -37 15 -277 15 l-278 0 -92 92 -93 93 0
137 0 138 -285 0 -285 0 0 -40 c0 -36 -3 -40 -24 -40 -24 0 -24 2 -25 83 0 45
0 130 0 190 l-1 107 -100 0 -100 0 0 60 0 60 114 0 c102 0 114 2 112 18 -1 16
20 17 284 22 l285 5 6 140 c4 77 7 200 8 273 1 111 -1 132 -14 132 -8 0 -15 4
-15 10 0 19 34 79 46 82 15 3 227 426 219 437 -7 12 27 91 39 91 11 0 289 552
323 642 10 27 21 48 25 48 4 0 23 -8 43 -17z m2150 1 c-44 -17 -134 -40 -129
-33 3 5 12 9 20 9 8 0 14 5 14 11 0 5 4 8 9 5 5 -4 20 -2 33 3 12 6 32 10 43
10 11 -1 16 -2 10 -5z m-145 -33 c0 -9 -84 -44 -110 -46 -9 0 -21 -5 -29 -9
-9 -6 -12 -5 -9 5 3 8 11 15 19 15 8 1 17 3 22 4 4 1 12 4 17 5 6 1 13 4 18 5
4 1 10 2 15 1 4 0 7 4 7 10 0 6 7 9 15 6 8 -4 17 -2 20 3 8 12 15 13 15 1z
m-167 -62 c-6 -6 -23 -12 -37 -12 -14 -1 -26 -6 -26 -11 0 -4 -7 -6 -15 -3 -8
4 -17 2 -20 -3 -3 -5 -12 -7 -20 -3 -8 3 -15 0 -15 -6 0 -6 -7 -8 -15 -5 -8 4
-15 1 -15 -5 0 -6 -7 -8 -15 -5 -8 4 -15 1 -15 -6 0 -6 -4 -9 -9 -6 -5 4 -22
1 -38 -6 -15 -6 -30 -12 -33 -12 -32 -7 -107 -30 -112 -35 -4 -3 2 -46 12 -94
l18 -88 -25 -10 c-53 -20 -72 -21 -95 -4 -19 15 -20 16 -3 10 42 -15 55 -17
55 -7 0 5 7 9 16 8 19 -1 44 56 27 61 -6 2 -9 12 -6 22 3 10 0 22 -6 25 -5 4
-8 13 -4 21 3 9 0 21 -6 29 -9 11 -8 17 2 28 13 12 324 115 370 122 9 1 20 5
23 9 4 4 10 5 13 2 2 -3 0 -10 -6 -16z m251 -165 c25 -9 20 -26 -39 -144 -30
-60 -55 -113 -55 -118 0 -5 23 -19 51 -32 48 -23 50 -26 44 -55 -11 -47 -17
-281 -10 -372 7 -90 7 -90 83 -99 20 -2 61 -9 91 -14 30 -6 56 -10 58 -10 2 0
3 -11 3 -25 0 -14 -1 -25 -3 -25 -2 0 -52 9 -112 20 -60 11 -110 20 -112 20
-2 0 -3 -20 -3 -44 l0 -44 -41 -4 c-22 -2 -42 -2 -45 1 -9 9 -4 210 6 216 15
9 13 292 -2 301 -7 5 -8 3 -3 -5 8 -13 -23 -91 -36 -91 -17 0 -174 72 -181 83
-7 11 -6 18 9 54 3 7 -2 10 -15 6 -11 -2 -29 0 -39 5 -17 9 -21 6 -32 -24 -7
-19 -19 -34 -26 -34 -8 0 -39 12 -70 27 -64 31 -66 41 -30 113 l25 50 41 -20
c92 -47 85 -50 129 45 21 47 45 85 52 85 7 0 33 -11 57 -25 52 -30 57 -31 31
-5 -16 16 -18 25 -10 40 13 24 43 26 60 5 7 -8 16 -15 19 -15 4 0 22 32 41 70
35 72 37 74 64 64z m-849 -71 c52 -26 95 -51 95 -56 0 -5 -40 -94 -90 -200
-67 -141 -87 -193 -77 -199 24 -16 355 -188 362 -188 3 0 15 20 26 45 11 25
26 45 34 45 20 0 19 -13 -5 -60 l-20 -40 45 0 45 0 0 -112 0 -113 -60 3 -60 4
0 -241 0 -241 60 0 60 0 0 -110 0 -110 -60 0 c-56 0 -60 -2 -66 -26 -14 -56 3
-120 71 -264 37 -80 76 -164 86 -187 16 -37 22 -43 49 -43 l31 0 -2 -57 -3
-58 121 -3 120 -3 6 92 c11 152 8 569 -3 569 -7 0 -10 35 -8 98 l3 97 43 3 42
3 0 -60 c0 -54 2 -61 20 -61 22 0 22 15 0 90 -12 40 -7 46 42 55 l36 7 9 -54
c7 -43 6 -55 -7 -65 -8 -7 -11 -13 -7 -13 4 0 106 25 227 55 121 30 224 55
230 55 5 0 10 -12 10 -28 l0 -27 -277 -69 c-175 -44 -283 -75 -290 -85 -9 -12
-12 -132 -13 -483 l0 -468 -205 0 -204 0 -3 98 -3 97 -42 3 c-24 2 -43 1 -43
-1 0 -2 18 -41 40 -87 23 -45 39 -84 38 -86 -2 -2 -71 129 -153 291 -83 162
-156 295 -162 295 -19 0 -17 79 2 86 13 5 15 56 15 370 0 317 -2 364 -15 364
-11 0 -15 11 -15 35 0 22 6 38 15 41 12 5 15 31 15 149 l0 142 -187 98 c-104
54 -194 98 -200 98 -7 0 -13 5 -13 10 0 6 -3 8 -6 4 -7 -7 -44 29 -44 43 0 17
233 500 241 500 5 0 52 -21 104 -47z m2622 -115 c-3 -8 -6 -5 -6 6 -1 11 2 17
5 13 3 -3 4 -12 1 -19z m68 13 c3 -5 0 -13 -6 -17 -7 -4 -9 -3 -5 4 3 5 0 13
-6 15 -9 4 -10 6 -1 6 6 1 14 -3 18 -8z m0 -82 c-4 -5 -12 -9 -18 -8 -9 0 -8
2 1 6 6 2 9 10 6 15 -4 7 -2 8 5 4 6 -4 9 -12 6 -17z m-58 -5 c-3 -3 -12 -4
-19 -1 -8 3 -5 6 6 6 11 1 17 -2 13 -5z m-2154 -191 c-7 -2 -19 -2 -25 0 -7 3
-2 5 12 5 14 0 19 -2 13 -5z m1418 3 c3 -3 3 -23 1 -45 l-4 -41 -59 0 -59 0 0
45 0 45 58 0 c32 0 61 -2 63 -4z m596 -166 c99 -44 123 -176 47 -259 -82 -92
-224 -69 -275 43 -37 81 -14 161 60 207 54 35 106 37 168 9z m-576 -380 c1
-55 2 -108 3 -117 1 -15 -10 -18 -71 -21 l-73 -3 0 121 0 120 70 0 70 0 1
-100z m-2383 -149 l132 -139 0 -241 0 -241 60 0 c33 0 60 -4 60 -10 0 -6 -28
-10 -65 -10 l-65 0 0 252 0 253 -137 137 c-76 76 -133 138 -128 138 6 0 70
-63 143 -139z m3510 -503 l2 -488 -70 0 -70 0 0 -205 0 -205 -495 0 -495 0 0
220 0 220 320 0 320 0 0 125 0 125 -47 1 c-27 1 -52 1 -56 0 -13 -2 -19 28
-13 64 7 35 7 35 61 35 29 0 55 -5 57 -10 2 -6 2 123 0 287 -2 163 -1 302 2
310 5 11 51 13 243 11 l238 -3 3 -487z m-5712 409 c3 -21 -14 -33 -28 -19 -13
13 -2 45 14 40 6 -2 12 -12 14 -21z m4509 -207 c176 -16 328 -30 338 -30 20 0
20 9 2 -205 -10 -126 -17 -165 -28 -165 -21 -1 -732 63 -735 66 -2 1 3 79 12
173 9 93 16 174 16 180 0 16 41 14 395 -19z m-881 -182 c10 -40 7 -45 -36 -56
-47 -12 -55 -9 -60 28 -3 21 3 26 37 36 54 17 52 17 59 -8z m-4054 -243 c0 -8
-9 -19 -20 -25 -17 -9 -20 -8 -20 9 0 11 8 22 18 24 9 3 18 5 20 6 1 0 2 -6 2
-14z m4052 -205 l-3 -111 -52 3 -52 3 0 107 0 108 55 0 55 0 -3 -110z m-1231
63 l-54 -4 5 -242 6 -241 -142 -148 -141 -148 -67 0 c-38 0 -68 3 -68 8 0 4
26 6 57 5 l58 -1 143 141 142 142 0 247 0 248 58 -2 57 -2 -54 -3z m1139 -258
c0 -60 -3 -75 -15 -75 -12 0 -15 15 -15 75 0 60 3 75 15 75 12 0 15 -15 15
-75z m-3330 -228 l0 -62 93 -92 92 -91 563 -5 562 -5 0 24 c0 23 3 24 70 24
l70 0 0 -50 0 -50 -430 0 -430 0 0 -713 0 -713 120 -229 c66 -127 120 -235
120 -242 0 -10 -460 -253 -478 -253 -4 0 -33 51 -65 113 l-57 112 0 433 c0
377 -2 432 -15 432 -11 0 -15 11 -15 40 0 29 4 40 15 40 13 0 15 37 15 270 0
233 -2 270 -15 270 -11 0 -15 11 -15 40 0 29 4 40 15 40 13 0 15 27 15 185 l0
185 -115 0 c-70 0 -115 -4 -115 -10 0 -5 -9 -10 -20 -10 -19 0 -20 7 -20 190
0 183 1 190 20 190 18 0 20 -7 20 -63z m2914 -135 l25 -49 -47 -44 c-87 -82
-107 -94 -37 -21 l69 72 -22 45 c-12 25 -20 45 -17 45 3 0 16 -22 29 -48z
m2454 -365 l2 -188 -232 -113 c-128 -63 -281 -136 -340 -164 l-106 -50 30
-121 30 -121 114 0 114 0 0 -144 c0 -79 -3 -158 -6 -176 -7 -31 -7 -32 -59
-28 -34 2 -51 -1 -47 -7 8 -14 267 -394 359 -527 l75 -108 99 0 c92 0 99 -1
99 -20 0 -20 -5 -20 -927 -18 l-928 3 -3 319 -2 318 -120 -3 -119 -4 -6 60
c-3 33 -5 254 -3 490 l3 430 38 3 37 3 0 108 0 108 443 1 442 0 1 64 c1 35 2
66 3 71 1 4 227 6 504 5 l502 -3 3 -188z m-2616 8 l-3 -115 -163 0 c-133 0
-166 -3 -176 -15 -7 -8 -17 -15 -22 -15 -5 0 -32 -25 -60 -55 -27 -30 -54 -55
-60 -55 -22 0 2 31 77 98 l80 72 62 0 c40 0 63 4 63 11 0 19 180 189 200 189
3 0 4 -52 2 -115z m-3154 72 c2 -12 -3 -17 -17 -17 -12 0 -21 6 -21 13 0 31
32 34 38 4z m3544 -180 c2 -42 0 -77 -4 -77 -5 0 -7 51 -6 113 1 115 5 101 10
-36z m3041 71 c6 -22 5 -22 -8 -4 -17 22 -20 40 -6 32 5 -3 11 -16 14 -28z
m-132 -85 c13 -16 12 -17 -3 -4 -17 13 -22 21 -14 21 2 0 10 -8 17 -17z
m-3591 -13 c0 -5 -4 -10 -10 -10 -5 0 -10 5 -10 10 0 6 5 10 10 10 6 0 10 -4
10 -10z m320 -56 c0 -24 -4 -44 -9 -44 -9 0 -20 88 -12 95 11 12 21 -11 21
-51z m-3405 -20 c36 -14 38 -93 2 -116 -17 -11 -70 1 -84 20 -16 20 -17 74 -1
90 13 13 56 16 83 6z m59 -143 c10 -15 -16 -115 -33 -128 -22 -19 -83 -15
-108 6 -17 15 -22 28 -20 62 2 39 6 45 32 56 36 14 122 17 129 4z m3476 -111
l0 -40 120 0 120 0 0 -125 0 -125 -130 0 -130 0 0 -300 0 -300 40 0 40 0 0
-83 0 -82 123 -1 c67 -1 161 -2 210 -3 l87 -1 0 -260 0 -260 130 0 c123 0 130
-1 130 -20 0 -16 7 -20 34 -20 19 0 37 6 39 13 4 9 8 9 14 1 4 -7 17 -13 28
-15 18 -4 20 -13 23 -82 l3 -77 -296 0 c-256 0 -295 -2 -295 -15 0 -8 -7 -15
-15 -15 -13 0 -15 27 -15 185 l0 185 -493 496 -493 496 -189 -91 c-104 -50
-193 -90 -198 -88 -12 4 -157 287 -157 307 0 10 107 69 298 165 242 123 298
155 300 173 l3 22 335 0 334 0 0 -40z m-1620 -572 c39 -67 163 -319 158 -323
-15 -13 -258 -135 -269 -135 -14 0 -199 337 -199 362 0 15 236 147 262 148 11
0 30 -21 48 -52z m-1851 -77 c17 -11 5 -31 -19 -31 -24 0 -36 20 -19 31 8 5
16 9 19 9 3 0 11 -4 19 -9z m564 -25 c9 0 17 -7 17 -14 0 -8 11 -27 25 -44 18
-21 25 -41 25 -69 0 -22 5 -49 10 -60 23 -41 -3 -40 -46 2 -53 52 -79 99 -87
157 -5 40 -4 42 16 36 12 -4 30 -8 40 -8z m3627 -61 l0 -35 -100 0 -100 0 0
28 c0 16 3 32 7 35 3 4 48 7 100 7 l93 0 0 -35z m2608 -192 c-21 -2 -57 -2
-80 0 -24 2 -7 4 37 4 44 0 63 -2 43 -4z m0 -90 c-21 -2 -57 -2 -80 0 -24 2
-7 4 37 4 44 0 63 -2 43 -4z m-4385 -62 c40 -16 57 -40 57 -82 0 -59 -37 -93
-93 -86 -26 4 -47 14 -59 29 -34 44 -15 118 36 138 28 12 31 12 59 1z m4740
-238 c-7 -2 -13 -11 -13 -18 0 -7 6 -16 13 -18 9 -4 9 -6 0 -6 -6 -1 -15 4
-18 9 -9 15 2 40 17 39 10 0 10 -2 1 -6z m-33 -69 c0 -2 -12 -4 -27 -4 -21 0
-24 3 -14 9 13 8 41 5 41 -5z m-173 0 c-3 -3 -12 -4 -19 -1 -8 3 -5 6 6 6 11
1 17 -2 13 -5z m-104 -31 c-7 -2 -19 -2 -25 0 -7 3 -2 5 12 5 14 0 19 -2 13
-5z m104 1 c-3 -3 -12 -4 -19 -1 -8 3 -5 6 6 6 11 1 17 -2 13 -5z m-3637 -514
l0 -290 -25 0 c-14 0 -25 3 -25 6 0 4 -7 50 -16 103 -14 84 -24 109 -76 201
l-59 105 -112 50 c-109 49 -114 50 -177 42 -36 -4 -105 -6 -155 -5 -135 2
-433 2 -575 -1 -69 -2 -195 0 -281 4 -133 6 -160 5 -187 -9 -43 -22 -57 -20
-70 9 -17 37 -15 43 16 59 23 13 144 15 885 16 l857 0 0 -290z m2013 223 c-13
-2 -33 -2 -45 0 -13 2 -3 4 22 4 25 0 35 -2 23 -4z m-583 -123 l0 -70 -30 0
-30 0 0 70 0 70 30 0 30 0 0 -70z m527 -112 c-2 -18 -4 -6 -4 27 0 33 2 48 4
33 2 -15 2 -42 0 -60z m5 -108 c-2 -16 -6 -30 -8 -30 -2 0 -4 14 -4 30 0 17 4
30 8 30 5 0 7 -13 4 -30z m-2232 -68 c11 -45 1 -77 -43 -132 -19 -24 -19 -24
-13 -2 7 20 4 22 -32 22 -49 0 -74 25 -74 77 0 51 40 87 89 80 25 -4 33 -2 33
9 0 28 28 -10 40 -54z m-275 -63 c4 -6 3 -15 -3 -21 -7 -7 -28 0 -68 23 -32
18 -52 35 -46 37 10 3 10 7 0 19 -7 9 15 2 49 -15 34 -18 65 -37 68 -43z
m-455 -147 c0 -11 -91 -215 -100 -225 -9 -10 -150 176 -150 197 0 9 26 16 93
23 126 14 157 14 157 5z m3528 -397 c-3 -3 -9 2 -12 12 -6 14 -5 15 5 6 7 -7
10 -15 7 -18z"/>
<path d="M5647 7370 c-19 -22 -21 -30 -9 -30 5 0 14 11 20 25 14 30 12 31 -11
5z"/>
<path d="M5485 7189 c-4 -6 -5 -12 -2 -15 2 -3 7 2 10 11 7 17 1 20 -8 4z"/>
<path d="M5550 7165 c25 -13 50 -24 55 -24 6 0 -10 11 -35 24 -25 13 -49 24
-55 24 -5 0 10 -11 35 -24z"/>
<path d="M5825 6010 c-3 -5 1 -10 9 -10 9 0 16 5 16 10 0 6 -4 10 -9 10 -6 0
-13 -4 -16 -10z"/>
</g>
</svg>
