<?xml version="1.0" standalone="no"?>
<!DOCTYPE svg PUBLIC "-//W3C//DTD SVG 20010904//EN"
 "http://www.w3.org/TR/2001/REC-SVG-20010904/DTD/svg10.dtd">
<svg version="1.0" xmlns="http://www.w3.org/2000/svg"
 width="1000.000000pt" height="1000.000000pt" viewBox="0 0 1000.000000 1000.000000"
 preserveAspectRatio="xMidYMid meet">

<g transform="translate(0.000000,1000.000000) scale(0.100000,-0.100000)"
fill="#000000" stroke="none">
<path d="M5492 7095 l3 -155 -23 0 c-12 0 -25 7 -28 15 -5 12 -27 15 -110 15
l-104 0 0 -325 c0 -210 4 -325 10 -325 6 0 10 -13 10 -30 0 -16 -4 -30 -10
-30 -5 0 -10 -18 -10 -40 l0 -40 -122 0 c-119 0 -123 -1 -150 -27 l-28 -27 0
-263 0 -263 25 0 c16 0 25 -6 25 -15 0 -8 -3 -14 -7 -14 -5 1 -45 1 -90 0
l-83 -1 0 -65 c0 -51 -3 -65 -15 -65 -9 0 -15 9 -15 25 l0 25 -130 0 -130 0 0
-75 0 -75 -35 0 -36 0 3 -147 3 -148 48 -3 c53 -3 65 -22 15 -22 -66 -1 -68
-6 -68 -214 0 -159 -2 -186 -15 -186 -12 0 -15 20 -15 119 l0 120 -27 3 c-16
2 -28 8 -28 13 0 6 12 11 28 13 l27 3 0 347 0 347 -90 -3 -90 -3 0 -127 0
-127 -312 -312 c-172 -171 -322 -313 -333 -315 -16 -3 -21 -12 -23 -51 -2 -33
-7 -47 -18 -47 -11 0 -14 17 -14 78 l0 77 -300 1 -300 0 0 -143 0 -143 -230 0
-230 0 0 150 0 150 -585 0 -585 0 -2 188 -3 187 -65 3 c-36 1 -169 9 -295 17
-127 8 -249 15 -273 15 l-42 0 0 -153 c0 -85 3 -310 7 -500 l6 -347 487 0 487
0 6 33 c3 17 3 58 1 90 l-4 57 295 0 295 0 0 -160 0 -160 110 0 110 0 0 45 0
45 378 2 377 3 3 23 c3 22 5 22 177 22 l174 0 3 75 c2 42 7 75 13 75 6 0 11
-33 13 -75 l3 -75 94 0 95 0 0 -50 c0 -49 1 -50 29 -50 25 0 38 -12 98 -97 38
-54 80 -116 94 -138 14 -22 52 -80 85 -128 32 -49 167 -249 300 -445 l240
-357 220 -73 c120 -39 228 -74 239 -76 11 -3 20 -5 20 -6 0 -1 10 -3 22 -6 12
-2 208 -64 437 -139 l414 -135 290 0 289 0 11 33 c5 17 10 24 11 15 1 -17 20
-18 246 -18 l245 0 0 75 0 75 -70 0 -70 0 0 161 c0 126 -3 164 -14 175 -11 11
-47 14 -159 14 -180 0 -175 4 -180 -135 l-3 -100 -2 123 -2 122 50 0 50 0 0
51 c0 31 4 48 10 44 6 -3 10 -19 10 -36 0 -16 5 -29 10 -29 6 0 10 -7 10 -15
0 -12 18 -15 100 -15 80 0 100 3 100 14 0 8 6 16 12 18 7 3 13 15 13 29 0 15
7 25 19 27 15 3 18 0 13 -20 -5 -19 -10 -301 -8 -385 1 -23 3 -23 136 -23 90
0 142 4 156 13 17 10 23 10 26 0 6 -16 253 -19 253 -3 0 6 7 10 15 10 8 0 15
-4 15 -10 0 -17 219 -13 236 4 17 17 20 176 4 176 -5 0 -10 7 -10 15 0 8 5 15
10 15 15 0 13 173 -2 188 -9 9 -9 15 0 24 15 15 17 358 2 358 -5 0 -10 7 -10
15 0 8 5 15 10 15 6 0 10 38 10 95 0 57 -4 95 -10 95 -5 0 -10 7 -10 15 0 13
-20 15 -120 15 -100 0 -120 -2 -120 -15 0 -20 -26 -19 -34 1 -3 9 -6 18 -6 20
0 2 32 4 70 4 l70 0 0 310 0 310 -145 0 -145 0 0 185 0 185 104 0 c116 0 151
18 82 43 -17 6 4 45 22 41 13 -3 26 15 57 83 44 96 125 192 201 240 37 23 44
32 39 51 -7 28 21 42 38 18 11 -15 17 -15 72 5 85 31 264 32 347 1 52 -19 59
-19 67 -5 12 23 45 9 38 -17 -4 -15 6 -27 44 -50 27 -18 73 -58 103 -91 l55
-59 295 0 296 0 2 -242 3 -243 255 0 255 0 3 383 c2 386 3 389 36 383 9 -2 2
103 -10 132 -3 9 -11 17 -18 17 -8 0 -10 27 -8 90 l3 90 -333 2 c-183 2 -843
2 -1465 0 l-1133 -2 0 -123 c0 -85 -3 -117 -10 -107 -6 8 -10 53 -9 99 2 74
-1 87 -17 97 -12 8 -70 14 -148 16 -90 3 -131 7 -134 16 -2 8 7 12 27 12 l31
0 0 285 0 285 -165 0 -165 0 0 45 c0 25 -4 45 -10 45 -5 0 -10 14 -10 30 0 17
5 30 10 30 6 0 10 92 10 255 0 163 -4 255 -10 255 -5 0 -10 16 -10 35 0 19 5
35 10 35 6 0 10 7 10 15 0 8 -4 15 -10 15 -5 0 -10 9 -10 20 0 19 -7 20 -94
20 -74 0 -95 -3 -100 -15 -3 -8 -16 -15 -28 -15 l-23 0 4 155 3 155 -222 0
-222 0 4 -155z m-255 -1185 c1 -19 2 -92 2 -162 l1 -127 325 -1 c208 0 325 4
325 10 0 6 11 10 25 10 14 0 25 -4 25 -10 0 -6 46 -10 118 -10 l117 0 13 27
c8 18 12 76 12 165 0 85 4 138 10 138 6 0 10 -65 10 -175 l0 -175 35 0 c19 0
35 -4 35 -10 0 -13 -67 -13 -75 0 -8 14 -1022 13 -1030 0 -8 -13 -35 -13 -35
0 0 6 9 10 20 10 19 0 20 7 20 168 0 93 3 172 7 176 17 17 38 -1 40 -34z m286
-4 c-10 -13 -20 -22 -22 -20 -4 4 29 44 36 44 2 0 -4 -11 -14 -24z m401 2
c-13 -24 -47 -58 -58 -58 -5 0 5 16 24 35 35 37 46 44 34 23z m-354 -1 c0 -2
-17 -19 -37 -38 -34 -30 -35 -31 -13 -4 29 35 50 52 50 42z m18 -27 c-12 -16
-26 -30 -32 -30 -5 0 3 14 19 30 16 17 30 30 32 30 2 0 -6 -13 -19 -30z m42
-5 c-13 -14 -28 -25 -34 -25 -5 0 3 13 19 30 16 16 31 28 33 25 3 -3 -5 -16
-18 -30z m45 1 c-16 -24 -35 -35 -35 -19 0 10 43 54 48 49 2 -2 -4 -16 -13
-30z m59 22 c-13 -24 -37 -48 -47 -48 -6 0 2 14 18 30 31 32 41 38 29 18z m56
9 c0 -2 -15 -16 -32 -33 -27 -24 -29 -25 -13 -4 24 30 45 47 45 37z m20 -27
c-12 -16 -26 -30 -33 -30 -6 0 2 14 18 30 16 17 30 30 33 30 2 0 -6 -13 -18
-30z m70 27 c0 -2 -15 -16 -32 -33 l-33 -29 29 33 c28 30 36 37 36 29z m50
-40 c0 -2 -10 -12 -22 -23 l-23 -19 19 23 c18 21 26 27 26 19z m2888 -294
c-16 -2 -40 -2 -55 0 -16 2 -3 4 27 4 30 0 43 -2 28 -4z m-4018 -423 l0 -110
195 0 195 0 0 -260 c0 -167 -4 -260 -10 -260 -6 0 -10 85 -10 234 0 129 -3
241 -6 250 -8 20 -139 23 -148 4 -5 -10 -7 -10 -12 0 -4 9 -44 12 -150 12 -89
0 -144 4 -144 10 0 6 15 10 33 10 l32 0 -3 110 c-3 94 -1 110 12 110 14 0 16
-17 16 -110z m1440 74 c0 -58 14 -64 144 -64 75 0 116 -4 116 -11 0 -7 -40 -9
-119 -7 -83 2 -122 -1 -130 -9 -7 -8 -11 -57 -11 -133 0 -100 3 -124 17 -138
16 -16 16 -17 0 -20 -16 -3 -17 -44 -17 -512 l0 -509 -110 6 -110 6 0 -182 0
-181 -25 0 c-14 0 -124 0 -245 0 -121 0 -229 0 -240 0 -19 0 -20 8 -22 178
l-3 177 -145 2 c-80 1 -150 2 -156 3 -6 0 -11 8 -11 18 1 9 0 50 -1 89 l-2 73
-372 2 -373 3 -3 148 -3 147 -154 0 -155 0 0 285 0 285 43 -1 42 -2 -35 -6
-35 -6 -3 -242 c-2 -212 0 -243 13 -243 8 0 15 -7 15 -15 0 -23 245 -22 254 1
3 8 10 12 16 9 6 -4 8 -11 5 -16 -11 -16 7 -9 21 9 13 16 13 16 14 0 0 -16 11
-18 90 -18 125 0 115 -19 -12 -22 l-103 -3 -3 -123 c-2 -117 -1 -125 20 -148
23 -23 26 -24 201 -24 151 0 177 2 177 15 0 20 16 19 24 -1 5 -14 29 -16 194
-13 l187 4 3 -73 3 -72 144 0 c90 0 145 4 145 10 0 6 9 10 20 10 17 0 20 -7
20 -40 0 -33 -3 -40 -20 -40 -11 0 -20 -7 -20 -15 0 -8 -7 -15 -15 -15 -13 0
-15 -22 -15 -140 0 -194 -20 -180 260 -180 189 0 220 2 220 15 0 8 5 15 10 15
6 0 10 53 10 140 0 173 -4 180 -97 180 l-63 0 0 40 c0 33 3 40 20 40 11 0 20
-4 20 -10 0 -6 57 -10 150 -10 l150 0 0 295 c0 288 0 295 20 295 20 0 20 7 20
390 0 253 4 390 10 390 6 0 10 -16 10 -36z m540 -209 l0 -175 -160 0 c-100 0
-160 4 -160 10 0 6 54 10 143 10 98 0 147 4 155 12 8 8 12 52 12 134 0 131 -1
134 -56 134 -13 0 -24 5 -24 10 0 6 18 10 40 10 29 0 40 4 40 15 0 8 2 15 5
15 3 0 5 -79 5 -175z m-1041 49 c52 -31 59 -85 13 -103 -22 -9 -23 -10 -4 -7
36 7 8 -21 -29 -29 -22 -5 -36 -2 -51 12 -42 38 -47 103 -7 103 10 0 19 6 19
14 0 12 10 21 28 25 2 1 16 -6 31 -15z m199 -14 c47 -31 13 -130 -45 -130 -52
0 -93 53 -78 102 9 26 63 58 84 50 9 -4 26 -14 39 -22z m-625 -347 c-7 -2 -21
-2 -30 0 -10 3 -4 5 12 5 17 0 24 -2 18 -5z m167 -8 c0 -8 -4 -15 -10 -15 -5
0 -10 4 -10 9 0 5 -12 12 -27 14 -23 3 -21 4 10 6 27 1 37 -3 37 -14z m-450
-250 l0 -95 65 0 c51 0 65 3 65 15 0 11 12 15 50 15 47 0 50 -2 50 -26 0 -44
21 -54 111 -54 66 0 84 3 95 18 12 16 13 15 14 -5 0 -22 -3 -23 -103 -23 -57
0 -107 -4 -112 -9 -6 -5 -29 -11 -52 -14 -39 -5 -43 -3 -43 16 0 46 -8 48
-178 48 -100 0 -162 3 -162 9 0 6 38 10 90 10 l90 0 0 95 c0 57 4 95 10 95 6
0 10 -38 10 -95z m-3420 -145 c0 -5 -7 -10 -15 -10 -8 0 -15 5 -15 10 0 6 7
10 15 10 8 0 15 -4 15 -10z m2705 -171 c8 -184 10 -179 -70 -179 l-50 0 -3 78
c-2 42 -6 106 -8 142 -2 36 1 77 7 93 10 25 16 27 64 27 l52 0 8 -161z m-2705
117 c0 -11 -19 -15 -25 -6 -3 5 1 10 9 10 9 0 16 -2 16 -4z m5109 -318 c6 -35
14 -78 16 -97 4 -32 6 -40 20 -88 5 -19 1 -22 -39 -28 -53 -8 -70 -25 -63 -61
2 -15 1 -22 -4 -17 -5 5 -16 51 -24 103 -9 51 -18 96 -20 100 -3 5 -7 28 -10
51 -3 24 -8 53 -11 63 -6 17 -2 18 30 13 20 -3 34 -2 31 3 -3 5 7 11 22 13 16
2 31 5 34 6 3 0 11 -27 18 -61z m-721 -25 c-10 -2 -28 -2 -40 0 -13 2 -5 4 17
4 22 1 32 -1 23 -4z m1226 -188 c-7 -17 -24 -20 -24 -5 0 6 -50 10 -130 10
-71 0 -130 -4 -130 -9 0 -5 -7 -11 -15 -15 -10 -4 -15 1 -15 14 0 19 8 20 160
20 138 0 159 -2 154 -15z m-450 -50 c3 -9 0 -17 -7 -20 -24 -7 -77 -14 -77
-11 0 3 -3 11 -6 19 -6 16 11 24 57 26 16 1 29 -5 33 -14z m136 -127 c0 -17
-3 -19 -12 -10 -8 8 -48 12 -116 12 -110 0 -126 -6 -135 -51 -3 -15 -5 -9 -6
17 0 22 2 44 6 47 3 4 64 7 135 7 125 0 128 0 128 -22z m30 -58 c0 -5 -7 -10
-15 -10 -8 0 -15 5 -15 10 0 6 7 10 15 10 8 0 15 -4 15 -10z m-1730 -290 l0
-50 -52 0 -53 0 -2 50 -2 50 54 0 55 0 0 -50z m1881 -102 c1 -7 0 -17 -1 -23
-2 -5 -2 -52 -1 -103 1 -51 -1 -117 -4 -147 l-7 -55 -66 0 -65 0 7 46 c3 26 6
102 6 170 l0 124 65 0 c45 0 65 -4 66 -12z m-1532 -179 c7 11 25 12 88 6 43
-4 105 -10 138 -12 33 -2 68 -5 78 -6 14 -1 17 -11 17 -49 0 -39 -3 -48 -17
-49 -16 0 -15 -2 2 -9 19 -9 -294 -3 -322 5 -9 3 -13 26 -13 67 0 45 3 59 10
48 9 -13 11 -13 19 -1z m1871 -161 l0 -58 -60 0 -60 0 0 61 0 60 60 -3 60 -3
0 -57z"/>
<path d="M5890 5050 c8 -5 22 -9 30 -9 10 0 8 3 -5 9 -27 12 -43 12 -25 0z"/>
<path d="M5825 4990 c3 -5 8 -10 11 -10 2 0 4 5 4 10 0 6 -5 10 -11 10 -5 0
-7 -4 -4 -10z"/>
<path d="M6725 3760 c3 -5 8 -10 11 -10 2 0 4 5 4 10 0 6 -5 10 -11 10 -5 0
-7 -4 -4 -10z"/>
</g>
</svg>
