<?xml version="1.0" standalone="no"?>
<!DOCTYPE svg PUBLIC "-//W3C//DTD SVG 20010904//EN"
 "http://www.w3.org/TR/2001/REC-SVG-20010904/DTD/svg10.dtd">
<svg version="1.0" xmlns="http://www.w3.org/2000/svg"
 width="1000.000000pt" height="1000.000000pt" viewBox="0 0 1000.000000 1000.000000"
 preserveAspectRatio="xMidYMid meet">

<g transform="translate(0.000000,1000.000000) scale(0.100000,-0.100000)"
fill="#000000" stroke="none">
<path d="M4927 9483 c-11 -10 -8 -228 3 -239 5 -5 11 -135 12 -317 l3 -307
-272 0 c-176 0 -273 -4 -273 -10 0 -5 -13 -10 -30 -10 -28 0 -30 3 -30 34 0
19 5 38 10 41 17 11 12 102 -6 109 -9 3 -60 6 -115 6 l-99 0 0 -840 0 -840
105 0 c79 0 104 3 103 13 -2 8 11 13 37 14 22 1 34 0 27 -3 -45 -20 50 -24
539 -24 l539 0 0 -280 0 -280 -282 -2 -282 -3 -93 -185 c-52 -102 -127 -246
-168 -320 -40 -74 -137 -261 -215 -415 -78 -154 -165 -321 -193 -372 l-52 -92
-100 -3 -100 -3 -3 -105 c-4 -162 -16 -150 143 -150 l135 0 0 -359 0 -359 -27
-18 c-26 -18 -64 -19 -638 -24 l-610 -5 0 -113 0 -112 -287 0 -288 0 0 -220
c0 -189 -2 -220 -15 -220 -8 0 -15 5 -15 10 0 6 -92 10 -255 10 -248 0 -255 1
-255 20 0 19 -7 20 -148 20 l-147 0 -28 -29 c-15 -16 -27 -33 -27 -38 0 -4 -9
-14 -20 -21 -18 -11 -20 -19 -14 -100 4 -55 11 -91 20 -98 8 -6 14 -16 14 -23
0 -6 7 -11 15 -11 10 0 15 -10 15 -30 0 -28 -3 -30 -35 -30 -19 0 -35 -5 -35
-11 0 -7 -10 -9 -25 -7 l-25 5 0 -128 c0 -127 0 -129 23 -129 25 0 63 -20 38
-20 -10 0 -12 -9 -8 -35 l6 -35 -62 0 -62 0 0 77 0 78 -48 3 -47 3 0 59 0 59
47 3 48 3 3 288 2 287 -50 0 -50 0 0 60 0 60 51 0 50 0 -3 37 -3 36 -115 39
c-63 21 -128 40 -145 43 -16 2 -31 5 -32 6 -2 1 -6 2 -10 3 -5 1 -13 5 -19 8
-22 14 -128 -53 -191 -120 -62 -66 -63 -68 -63 -124 l0 -57 -60 -7 -60 -7 2
-266 c3 -246 4 -266 21 -265 15 2 17 -8 17 -71 0 -64 -2 -73 -20 -78 -19 -5
-20 -14 -20 -282 0 -268 1 -277 20 -282 19 -5 20 -14 20 -175 l0 -169 103 3
102 3 3 133 3 133 27 -3 c24 -3 27 -8 30 -45 3 -35 0 -43 -14 -43 -15 0 -16
-9 -11 -82 4 -46 7 -129 7 -185 l0 -103 156 0 c147 0 156 1 161 20 5 19 14 20
149 20 l144 0 0 -84 c0 -80 -1 -85 -23 -88 -19 -3 -22 -10 -25 -58 -2 -30 -1
-92 3 -137 6 -73 9 -83 26 -83 10 0 19 -4 19 -10 0 -6 57 -10 150 -10 l149 0
3 -57 3 -58 100 -3 c65 -2 102 -7 106 -15 5 -8 42 -12 121 -12 l113 0 3 28 c3
25 7 27 44 27 23 0 49 6 57 14 30 26 174 81 179 68 2 -7 10 -12 17 -12 8 0 21
-10 30 -22 l16 -23 42 48 c29 32 51 48 72 51 17 2 38 7 47 11 9 4 21 4 27 1
19 -12 24 19 22 146 l-2 128 170 0 c145 0 171 -2 171 -15 0 -10 11 -15 38 -16
32 -1 33 -2 12 -8 l-25 -7 -3 -342 -2 -342 135 0 135 0 0 105 0 104 133 3 132
3 3 28 3 27 444 0 445 0 2 -222 3 -223 113 -3 c108 -3 114 -2 119 18 9 32 58
24 58 -10 l0 -25 378 -3 377 -2 0 -40 0 -40 190 0 190 0 1 103 c1 56 4 90 6
74 l4 -27 305 0 304 0 0 345 c0 338 0 345 20 345 15 0 20 -7 20 -25 l0 -25
490 0 c427 0 491 2 496 15 7 18 25 20 22 3 -2 -10 28 -14 121 -16 l124 -3 -4
168 c-2 92 -3 151 -1 131 l3 -38 110 0 109 0 0 -286 0 -286 419 4 420 3 33 33
c19 17 43 32 54 32 14 0 53 48 142 176 l122 175 0 723 0 723 -22 -1 c-23 -1
-23 -1 -26 182 l-2 183 -193 -1 -192 -2 -3 316 -2 316 95 0 96 0 -3 98 -3 97
-92 3 -93 3 0 89 c0 53 4 90 10 90 6 0 10 -8 10 -19 0 -10 7 -24 15 -31 8 -7
15 -23 15 -36 l0 -24 194 0 c189 0 194 1 199 21 5 17 12 21 36 17 l31 -5 0
273 0 273 -67 3 -68 3 0 243 0 242 -238 0 c-176 0 -238 3 -235 12 3 7 31 10
86 9 68 -2 82 0 82 13 0 8 -6 13 -12 11 -7 -3 -20 0 -28 5 -13 8 -13 13 -2 30
10 17 10 25 1 36 -16 19 -4 44 21 44 18 0 20 6 20 70 0 40 4 70 10 70 6 0 10
8 10 19 0 16 83 247 123 341 9 20 29 143 46 275 30 236 30 245 24 556 l-6 316
-81 18 c-45 10 -90 19 -102 20 -11 1 -25 5 -32 9 -7 4 -16 5 -21 1 -5 -3 -13
0 -16 6 -4 5 -13 8 -21 5 -11 -4 -14 18 -16 112 -3 133 10 114 -130 177 l-78
34 0 131 c0 113 -4 147 -32 257 -27 108 -36 130 -62 154 -17 16 -34 29 -39 29
-4 0 -46 -37 -92 -81 l-85 -81 -124 116 -123 116 -282 0 c-243 0 -281 -2 -281
-15 0 -11 -12 -15 -45 -15 -31 0 -47 -5 -51 -15 -5 -11 -22 -15 -70 -15 l-64
0 0 30 0 31 -132 -3 -133 -3 0 -73 0 -72 -41 0 -42 0 6 105 5 105 -122 0 c-79
0 -120 -4 -116 -10 4 -6 -22 -10 -69 -10 -61 0 -76 3 -76 15 0 8 -9 15 -20 15
-11 0 -20 5 -20 10 0 6 6 10 13 9 6 -1 19 1 27 4 8 4 40 8 70 9 l55 3 0 255 0
255 -57 3 c-32 2 -58 7 -58 12 0 13 -197 13 -205 0 -4 -6 -57 -10 -126 -10
l-119 0 0 24 c0 19 6 25 28 28 27 3 27 3 30 88 1 47 0 127 -4 178 l-6 92 -225
0 -225 0 4 -40 c2 -22 0 -40 -4 -40 -5 0 -11 -1 -15 -2 -5 -2 -10 65 -13 147
l-5 150 -441 3 c-242 1 -444 -1 -447 -5z m923 -509 l0 -64 40 0 c36 0 40 -2
40 -25 0 -24 -2 -25 -77 -26 -262 -5 -287 -10 -351 -64 -39 -33 -77 -103 -87
-162 -14 -89 49 -209 134 -252 43 -22 101 -36 101 -24 0 9 87 9 97 -1 3 -3 48
-6 100 -6 l93 0 0 -30 0 -31 148 3 147 3 3 28 3 27 110 0 c66 0 109 -4 109
-10 0 -5 9 -10 20 -10 11 0 20 -4 20 -10 0 -5 -9 -10 -20 -10 -11 0 -20 -6
-20 -14 0 -9 -12 -16 -27 -18 l-28 -3 -3 -202 -2 -203 -305 0 -305 0 0 150 0
150 -50 0 c-33 0 -52 5 -58 15 -4 9 -32 19 -63 24 -64 11 -117 31 -160 62
l-31 22 -41 -41 -42 -41 -31 28 -32 29 41 40 41 41 -32 63 c-65 128 -65 258 0
381 l31 58 -41 42 c-30 31 -37 45 -29 53 7 5 16 11 21 11 5 1 13 9 19 18 8 15
15 12 53 -26 40 -39 45 -41 61 -27 24 21 103 60 103 51 0 -4 5 -2 11 4 6 6 18
9 25 6 8 -3 22 -2 32 2 9 5 27 7 40 6 18 -2 22 3 22 23 0 24 4 26 41 26 31 0
40 -3 36 -14 -7 -17 11 -36 35 -36 12 0 18 8 18 23 0 29 7 37 26 30 10 -4 14
-23 14 -69z m-1460 -852 c0 -22 -5 -28 -25 -30 -22 -1 -25 2 -25 28 0 25 4 30
25 30 21 0 25 -5 25 -28z m510 -322 l0 -41 -37 3 c-44 3 -53 12 -53 51 0 25 3
27 45 27 l45 0 0 -40z m2460 -124 c0 -18 -8 -27 -30 -35 l-30 -10 2 -1098 3
-1098 180 -2 c118 -1 181 -5 183 -12 2 -6 -3 -11 -12 -11 -14 0 -16 -32 -16
-285 0 -195 3 -285 11 -285 6 0 9 -14 7 -32 l-3 -33 -160 -3 c-87 -1 -166 1
-175 4 -8 4 -21 6 -28 5 -8 -1 -19 2 -25 7 -14 12 -236 10 -255 -2 -7 -4 -25
-6 -40 -5 -15 1 -34 -1 -43 -5 -9 -4 -78 -6 -153 -4 l-136 3 0 -77 0 -78 115
0 115 0 -2 -327 -3 -328 -90 -5 -90 -5 -3 -97 -3 -98 36 0 36 0 -3 -127 -3
-128 -325 0 -325 0 -5 115 -5 115 -432 3 -432 2 -3 -42 -3 -43 -132 -3 -133
-3 0 66 0 65 -210 0 -210 0 0 470 0 469 118 3 117 3 0 180 0 180 -55 27 c-30
15 -59 28 -63 30 -8 3 14 58 80 198 20 41 36 80 36 87 0 7 6 14 14 17 7 3 13
12 13 20 0 8 6 19 13 23 6 4 20 22 29 38 17 29 36 35 68 21 12 -5 22 5 38 36
97 190 164 304 207 351 l50 57 363 2 c339 3 362 2 362 -14 0 -16 15 -18 170
-18 l171 0 -2 74 c-1 41 -4 79 -8 84 -3 5 -44 18 -91 29 l-85 19 -3 282 -2
282 -65 0 -65 0 0 395 0 395 218 0 c119 -1 327 -1 460 0 l244 0 -4 90 -3 90
253 0 252 0 0 -24z m248 -28 c3 -48 3 -48 -28 -48 -27 0 -30 2 -24 25 4 18 1
27 -10 31 -9 3 -16 15 -16 26 0 16 6 19 38 16 37 -3 37 -3 40 -50z m-3216 -18
c4 -27 2 -30 -24 -30 -24 0 -28 4 -28 30 0 25 4 30 24 30 19 0 25 -6 28 -30z
m3218 -430 c0 -15 -7 -20 -25 -20 -18 0 -25 5 -25 20 0 15 7 20 25 20 18 0 25
-5 25 -20z m-2667 -77 c-13 -2 -33 -2 -45 0 -13 2 -3 4 22 4 25 0 35 -2 23 -4z
m2657 -388 l0 -55 463 0 462 0 0 -260 0 -260 -492 0 -493 0 0 289 c0 248 2
290 15 295 8 3 15 15 15 26 0 11 7 20 15 20 12 0 15 -13 15 -55z m20 -1050 c0
-21 -5 -25 -30 -25 -25 0 -30 4 -30 25 0 21 5 25 30 25 25 0 30 -4 30 -25z
m1130 -262 c0 -6 -15 -13 -32 -15 l-33 -3 0 -250 0 -250 208 -3 c196 -2 207
-3 207 -22 0 -12 -8 -20 -22 -22 -22 -3 -23 -8 -26 -110 -3 -107 -3 -108 -27
-108 -16 0 -25 -6 -25 -15 0 -8 -4 -15 -10 -15 -6 0 -10 37 -10 90 l0 90 -197
1 c-109 0 -291 0 -406 -1 -114 -1 -212 2 -218 6 -6 3 -59 6 -118 5 -80 -1
-109 -5 -117 -16 -19 -25 -34 -17 -34 20 0 24 5 35 15 35 13 0 15 40 15 298
l0 297 415 0 c314 0 415 -3 415 -12z m-738 -1154 c2 -7 84 -13 236 -16 l232
-6 0 -239 0 -238 -230 0 c-198 0 -230 -2 -230 -15 0 -8 -4 -15 -10 -15 -6 0
-10 -33 -10 -80 l0 -80 -30 0 -30 0 0 70 0 70 -97 0 -98 0 1 -542 0 -542 95 3
c52 1 96 7 97 12 2 5 17 9 33 9 24 0 29 -4 29 -25 l0 -25 -420 0 -420 0 0 65
0 65 30 0 30 0 0 125 0 125 -30 0 -30 0 0 60 0 60 30 0 30 0 0 140 0 140 -30
0 c-30 0 -30 1 -30 55 0 54 0 55 30 55 l30 0 0 130 0 130 -30 0 c-30 0 -30 1
-30 55 0 54 0 55 30 55 l30 0 0 150 0 150 -30 0 c-30 0 -30 1 -30 55 l0 55
424 0 c294 0 425 -3 428 -11z m-3822 -822 l-1 -328 251 3 c137 2 250 1 250 -3
0 -3 -5 -10 -12 -17 -22 -22 1 -24 28 -3 15 11 31 21 35 21 19 0 7 -16 -31
-44 -22 -17 -40 -36 -40 -43 0 -20 7 -17 66 29 48 38 54 47 54 80 l0 38 385 0
385 0 0 -415 0 -415 -387 2 -388 3 0 162 c0 125 -3 159 -12 151 -7 -5 -18 -8
-25 -6 -8 3 -2 11 15 22 15 10 27 27 27 38 0 16 -9 12 -52 -24 -29 -23 -55
-44 -57 -45 -1 -1 -4 -13 -5 -27 l-1 -26 -120 0 c-66 0 -137 -3 -158 -7 -33
-5 -39 -3 -43 15 -7 24 -40 32 -130 32 -76 0 -80 11 -37 78 19 29 35 42 50 42
31 0 34 20 31 180 l-3 135 -307 3 c-170 1 -308 -1 -308 -6 0 -4 -12 -8 -27 -7
-25 0 -28 -4 -28 -32 0 -18 -3 -33 -7 -33 -5 0 -8 5 -8 10 0 6 -72 10 -195 10
l-195 0 0 -65 c0 -36 -4 -65 -9 -65 -6 0 -7 -31 -4 -73 3 -41 2 -117 -2 -170
-6 -87 -9 -97 -26 -97 -19 0 -19 10 -17 283 l3 282 100 5 99 5 33 170 c17 94
46 241 64 328 l32 157 364 -2 364 -3 -1 -328z m-1770 -488 l0 -230 -37 3 c-35
3 -38 6 -41 36 l-3 32 -130 0 -129 0 0 -530 0 -530 -55 0 c-52 0 -55 -1 -55
-25 0 -23 -4 -25 -45 -25 l-45 0 0 240 0 240 -44 0 c-43 0 -45 1 -48 33 l-3
32 -105 0 -105 0 0 -32 0 -33 -147 0 -148 0 0 99 0 100 48 3 47 3 3 83 3 82
49 0 c50 0 58 -8 51 -52 0 -5 87 -8 194 -8 l195 0 0 335 c0 217 -4 335 -10
335 -5 0 -10 9 -10 20 0 20 7 20 285 20 l285 0 0 -231z m5575 171 c0 -32 -3
-35 -32 -38 -32 -3 -33 -3 -33 38 0 41 1 41 33 38 29 -3 32 -6 32 -38z m-5055
-355 l0 -345 95 0 c57 0 95 4 95 10 0 6 11 10 23 10 20 0 24 -5 25 -31 1 -39
3 -41 44 -37 l33 3 -40 22 c-22 12 -37 22 -33 23 14 0 78 -34 78 -42 0 -4 9
-8 20 -8 11 0 20 -4 20 -9 0 -13 -107 -21 -281 -21 l-159 0 0 385 0 385 40 0
40 0 0 -345z m3796 287 c1 -36 -1 -48 -5 -32 -7 25 -8 25 -125 25 l-118 0 -2
-340 c-1 -295 -3 -340 -16 -340 -8 0 -16 10 -18 23 l-3 22 -177 -2 -177 -3 -6
-35 c-4 -19 -7 136 -8 346 0 209 2 384 6 387 3 4 151 7 327 7 l321 0 1 -58z
m4 -397 l0 -195 41 0 41 0 -3 -102 c-1 -57 -1 -147 -1 -200 l2 -98 595 0 595
0 -1 -47 c0 -27 -3 -42 -6 -35 -3 8 -35 12 -109 12 l-104 0 0 -105 c0 -77 -3
-105 -12 -105 -7 -1 -239 0 -515 0 -335 0 -504 -3 -508 -10 -3 -5 -13 -10 -21
-10 -11 0 -14 25 -14 145 0 138 1 145 20 145 18 0 20 7 20 85 0 78 -2 85 -20
85 -19 0 -20 7 -20 220 0 140 -4 220 -10 220 -6 0 -10 38 -10 95 0 88 1 95 20
95 19 0 20 -7 20 -195z m-2783 95 l43 0 0 -40 c0 -29 4 -40 15 -40 8 0 15 -9
15 -20 0 -16 -8 -19 -62 -22 l-63 -3 -5 -135 -5 -135 -187 -3 c-123 -2 -188 1
-188 8 0 5 11 10 25 10 l25 0 0 195 c0 167 2 195 15 195 13 0 15 -29 16 -197
0 -120 4 -190 9 -178 8 17 9 18 9 2 1 -16 12 -17 134 -15 l132 3 3 199 c2 153
5 197 14 188 7 -7 31 -12 55 -12z m-340 -22 c-3 -8 -6 -5 -6 6 -1 11 2 17 5
13 3 -3 4 -12 1 -19z m-1207 -428 l0 -80 -35 0 -35 0 0 80 0 80 35 0 35 0 0
-80z m2260 -20 c0 -24 -12 -31 -30 -19 -12 8 -12 12 -2 16 6 2 12 11 12 19 0
9 5 12 10 9 6 -3 10 -15 10 -25z m2510 21 c0 -5 -7 -11 -15 -15 -15 -5 -20 5
-8 17 9 10 23 9 23 -2z m-2844 -22 c17 2 9 -24 -8 -27 -14 -3 -18 3 -18 25 0
19 3 24 9 15 4 -8 12 -13 17 -13z m1759 -94 c0 -36 -3 -65 -7 -65 -10 0 -11
114 -1 123 3 4 7 7 7 7 1 0 1 -29 1 -65z m395 -191 l0 -224 -60 0 -60 0 0
-130 0 -130 55 0 55 0 1 -132 c0 -73 2 -166 4 -205 l3 -73 -144 0 c-143 0
-144 0 -191 -30 l-48 -31 -3 46 c-2 25 -7 45 -13 45 -5 0 -9 122 -9 311 0 212
3 308 10 304 6 -4 8 -15 5 -25 -3 -10 -1 -21 5 -25 6 -4 65 -4 131 0 l119 7 0
89 c0 79 2 89 18 89 10 0 24 6 30 12 10 10 17 10 32 0 14 -8 21 -8 26 -1 4 6
6 77 6 158 -1 151 3 185 19 176 5 -4 9 -103 9 -231z m-395 -94 c0 -27 -3 -50
-7 -50 -5 0 -8 23 -8 50 0 28 3 50 8 50 4 0 7 -22 7 -50z m-3685 -125 l0 -95
-35 0 -35 0 0 88 c0 49 3 92 7 95 3 4 19 7 35 7 l28 0 0 -95z m2280 -10 c0
-92 1 -95 23 -96 17 -1 15 -3 -8 -8 l-30 -6 0 -83 0 -82 -447 0 -448 0 0 100
0 100 -129 0 c-88 0 -132 4 -137 12 -5 8 -2 9 10 5 25 -10 66 2 66 19 0 11 29
14 150 14 125 0 150 2 150 15 0 24 60 84 94 94 17 5 183 10 369 10 l337 1 0
-95z m1081 -95 l50 0 -3 -137 -3 -138 -65 -5 -65 -5 -5 -120 -5 -120 -355 0
-355 0 -3 -37 c-3 -34 -6 -38 -30 -38 l-27 0 0 292 0 293 -35 4 -35 4 35 6
c22 4 35 12 35 21 0 13 54 16 405 20 l405 5 3 -22 c3 -20 9 -23 53 -23z"/>
<path d="M4728 3032 c-32 -25 -58 -51 -58 -59 0 -20 8 -16 64 29 28 23 53 43
54 44 2 1 2 9 0 17 -2 11 -19 2 -60 -31z"/>
<path d="M4728 2972 c-51 -39 -74 -72 -50 -72 15 0 115 96 111 107 -2 6 -30
-9 -61 -35z"/>
<path d="M4728 2914 c-32 -25 -58 -52 -58 -60 0 -11 4 -12 18 -5 40 21 121
112 100 111 -2 0 -29 -21 -60 -46z"/>
<path d="M4726 2855 c-31 -25 -56 -54 -55 -63 0 -10 3 -12 6 -4 2 6 11 12 19
12 7 0 19 9 26 20 7 11 17 20 23 20 12 1 49 49 42 56 -2 3 -30 -16 -61 -41z"/>
<path d="M4752 2820 c-15 -16 -30 -30 -34 -30 -14 0 -48 -39 -48 -55 0 -12 3
-12 18 3 10 10 35 31 55 46 41 32 65 66 46 66 -6 0 -23 -13 -37 -30z"/>
<path d="M4754 2765 c-14 -14 -29 -25 -34 -25 -5 0 -15 -9 -23 -20 -8 -11 -17
-17 -20 -13 -4 3 -7 -4 -7 -16 0 -20 4 -18 55 20 31 23 60 50 66 61 14 27 -7
23 -37 -7z"/>
<path d="M4197 2710 c-18 -29 -18 -30 1 -30 14 0 21 8 24 30 3 17 2 30 -2 30
-3 0 -14 -13 -23 -30z"/>
<path d="M6115 1101 c-10 -18 17 -23 33 -7 15 15 15 16 -5 16 -12 0 -24 -4
-28 -9z"/>
<path d="M9035 5510 c-3 -5 -1 -10 4 -10 6 0 11 5 11 10 0 6 -2 10 -4 10 -3 0
-8 -4 -11 -10z"/>
</g>
</svg>
