<?xml version="1.0" standalone="no"?>
<!DOCTYPE svg PUBLIC "-//W3C//DTD SVG 20010904//EN"
 "http://www.w3.org/TR/2001/REC-SVG-20010904/DTD/svg10.dtd">
<svg version="1.0" xmlns="http://www.w3.org/2000/svg"
 width="1000.000000pt" height="1000.000000pt" viewBox="0 0 1000.000000 1000.000000"
 preserveAspectRatio="xMidYMid meet">

<g transform="translate(0.000000,1000.000000) scale(0.100000,-0.100000)"
fill="#000000" stroke="none">
<path d="M5360 8242 c0 -174 -3 -228 -16 -265 l-16 -47 -469 0 c-462 0 -469 0
-469 -20 0 -11 -4 -20 -10 -20 -6 0 -10 77 -10 210 l0 210 -492 -2 -493 -3 -3
-43 c-6 -76 -22 -33 -22 58 l0 89 -167 5 c-93 3 -201 8 -240 11 -50 5 -73 3
-73 -4 0 -6 -9 -11 -20 -11 -13 0 -20 -7 -20 -20 0 -19 -7 -20 -120 -20 l-119
0 -3 -62 -3 -63 -40 0 -40 0 -3 78 -3 77 -154 0 c-143 0 -155 -1 -155 -18 0
-16 -27 -21 -270 -46 -151 -16 -274 -34 -279 -40 -11 -14 -80 -378 -88 -463
l-6 -63 -201 0 c-144 0 -205 3 -214 12 -9 9 -23 1 -62 -37 -54 -53 -58 -62
-36 -79 11 -9 17 -91 30 -404 8 -216 18 -397 21 -403 4 -5 111 -9 260 -9 262
0 278 -3 254 -41 -11 -18 -11 -160 0 -178 14 -21 3 -39 -44 -71 -34 -23 -42
-34 -40 -57 1 -15 3 -101 3 -190 l2 -163 55 0 c30 0 55 -4 55 -10 0 -5 -4 -10
-10 -10 -7 0 -10 -150 -10 -430 l0 -430 288 2 287 3 3 43 3 42 114 0 114 0 3
-42 3 -43 308 -3 c264 -2 307 -4 307 -17 0 -8 5 -15 10 -15 6 0 10 -7 10 -15
0 -12 -16 -15 -80 -15 l-80 0 0 -918 0 -918 -63 -62 -62 -62 -250 -2 -250 -3
0 -280 c0 -154 3 -288 7 -297 7 -17 30 -18 283 -18 l275 0 187 -372 188 -373
64 -3 c39 -2 69 -8 75 -17 13 -15 1233 -421 1242 -413 3 3 -4 25 -16 48 -12
23 -20 43 -18 45 21 18 100 48 123 46 22 -2 120 43 367 166 185 92 337 174
337 181 1 6 6 12 11 12 6 0 10 6 10 13 0 14 89 61 98 52 4 -3 18 -27 32 -53
l25 -47 277 -3 278 -2 2 222 3 223 90 0 90 0 3 -202 2 -203 236 0 c227 0 236
1 241 20 7 28 53 28 53 0 0 -19 7 -20 115 -20 108 0 115 1 115 20 0 18 7 20
60 20 l60 0 0 -35 0 -35 285 0 c265 0 285 1 285 18 0 16 21 17 315 14 200 -2
315 1 315 7 0 5 12 11 28 13 l27 3 3 168 2 167 -30 0 -30 0 0 65 0 65 35 0 36
0 -1 205 -1 205 -35 0 c-30 0 -34 3 -34 25 0 22 4 25 34 25 l34 0 1 155 2 155
-71 0 -70 0 0 250 0 250 373 2 372 3 3 215 c2 177 5 216 17 223 23 12 22 457
0 457 -13 0 -15 31 -15 220 0 187 2 222 15 226 12 5 15 28 15 120 0 95 -3 114
-15 114 -13 0 -15 31 -15 220 0 189 2 220 15 220 11 0 15 12 15 45 0 41 2 45
25 45 l25 0 2 203 3 202 28 3 27 3 0 130 0 129 -30 0 -30 0 0 175 0 175 -65 0
-65 0 0 435 0 436 -182 -4 c-101 -3 -200 -8 -220 -12 l-37 -7 -3 143 -3 144
-120 32 -120 31 -397 1 -398 1 0 35 c0 35 0 35 44 35 42 0 44 1 50 38 8 48 8
187 0 246 l-7 46 -226 0 c-136 0 -231 -4 -237 -10 -6 -6 -125 -11 -294 -12
l-285 -3 -3 -37 c-4 -51 -22 -49 -22 2 l0 40 -224 0 c-139 0 -227 -4 -231 -10
-3 -5 -19 -10 -36 -10 -22 0 -29 5 -29 20 0 20 -7 20 -345 20 l-345 0 0 -218z
m1240 -63 c0 -18 9 -19 210 -19 133 0 210 -4 210 -10 0 -6 66 -10 178 -10 97
0 183 -4 190 -9 8 -5 12 -22 10 -42 l-3 -34 -315 -6 c-280 -5 -344 -10 -457
-34 -22 -5 -23 -10 -23 -110 l0 -105 60 0 c54 0 60 -2 64 -22 12 -56 56 -499
51 -508 -3 -6 -42 -10 -86 -10 l-80 0 5 -62 c3 -35 5 -66 5 -70 1 -4 36 -8 79
-10 l77 -3 3 -59 c2 -40 -1 -62 -10 -68 -7 -5 -47 -7 -88 -6 l-75 3 -3 -174
c-1 -110 1 -178 8 -185 6 -6 10 -85 10 -206 l0 -195 -83 -43 c-303 -158 -299
-156 -312 -139 -17 24 -210 25 -219 2 -4 -11 -14 -13 -38 -8 -60 12 -529 15
-543 3 -8 -7 -77 -10 -189 -10 l-176 2 -25 48 c-14 27 -25 56 -25 65 0 17 -38
97 -50 105 -4 3 -24 38 -44 77 -33 67 -36 79 -36 162 0 49 5 93 10 96 6 4 10
133 10 356 l0 349 -490 0 -490 0 0 22 c0 50 -21 404 -26 425 l-4 23 -278 2
-277 3 -3 93 -3 92 -409 0 -410 0 0 51 0 50 43 -3 c41 -3 42 -4 45 -40 l3 -38
380 0 379 0 0 30 c0 29 18 44 22 18 0 -7 2 -17 3 -23 2 -5 3 -18 4 -27 1 -17
22 -18 295 -18 282 0 294 -1 299 -19 3 -11 -1 -32 -9 -47 -11 -20 -14 -77 -14
-238 l0 -212 43 -42 43 -42 162 0 162 0 0 180 c0 113 4 180 10 180 6 0 10 -9
10 -20 0 -19 8 -20 242 -22 182 -2 242 -6 246 -15 3 -10 -50 -13 -242 -13
l-246 0 0 -146 0 -146 48 7 c27 3 87 1 133 -6 103 -15 18 -13 817 -11 l672 2
0 260 c0 167 -4 260 -10 260 -11 0 -14 154 -4 235 l6 50 259 -3 259 -4 0 29
c0 16 3 33 6 36 11 10 24 -3 24 -24z m-4855 -29 c22 -5 75 -17 118 -27 l79
-17 -4 -72 c-2 -40 -6 -75 -9 -78 -3 -3 -39 1 -80 9 -41 9 -105 20 -144 26
-38 6 -75 14 -81 17 -7 5 -6 30 4 84 l14 77 31 -5 c18 -3 50 -9 72 -14z m5469
-172 c4 3 6 -4 6 -16 0 -19 -6 -22 -40 -22 -36 0 -40 3 -40 24 0 22 3 23 34
16 19 -4 37 -5 40 -2z m-3404 -8 c0 -5 -21 -10 -46 -10 -27 0 -43 4 -39 10 3
6 24 10 46 10 21 0 39 -4 39 -10z m-1720 -395 c0 -11 -17 -15 -72 -17 l-73 -3
-3 -88 c-2 -77 -5 -88 -20 -85 -14 3 -17 18 -20 92 -2 49 -1 95 2 103 8 20
186 19 186 -2z m578 -87 c-2 -84 -6 -103 -18 -103 -12 0 -16 18 -18 88 l-3 87
-69 0 c-56 0 -70 3 -70 15 0 12 17 15 90 15 l91 0 -3 -102z m-520 -45 c2 -46
-1 -83 -5 -83 -4 -1 -43 -2 -86 -3 l-77 -2 0 88 0 88 83 -3 82 -3 3 -82z
m5502 48 c0 -7 51 -11 150 -11 93 0 150 4 150 10 0 6 45 10 114 10 l113 0 81
-89 81 -88 3 -79 3 -79 58 -3 57 -3 0 -104 c0 -98 -1 -105 -20 -105 -20 0 -20
-7 -20 -334 0 -288 -2 -335 -15 -340 -11 -4 -15 -22 -15 -75 0 -69 0 -70 28
-73 l27 -3 3 -684 2 -685 -32 -33 -32 -33 -358 0 -357 0 -3 -92 -3 -93 -122
-3 -123 -3 0 -289 c0 -283 0 -290 -20 -290 -19 0 -20 -7 -20 -130 l0 -130 -60
0 -60 0 0 125 0 125 -209 0 c-129 0 -212 -4 -216 -10 -10 -17 -115 -12 -121 5
-5 13 -56 15 -371 15 l-365 0 3 -92 c2 -51 1 -97 -3 -103 -3 -6 -38 -9 -82 -7
-57 3 -76 7 -76 18 0 11 -23 14 -120 14 -100 0 -120 -2 -120 -15 0 -12 -16
-15 -84 -15 -56 0 -86 -4 -88 -12 -2 -6 -12 -9 -21 -5 -15 6 -17 29 -17 226
l0 220 -112 3 -113 3 -3 28 -3 27 90 0 91 0 0 280 0 280 -60 0 -60 0 0 130 0
130 -30 0 c-25 0 -30 4 -30 25 l0 25 200 0 200 0 0 -135 0 -135 905 0 905 0 0
850 0 850 -70 0 c-40 0 -70 4 -70 10 0 6 -6 10 -14 10 -8 0 -23 8 -35 18 -22
17 -22 20 -22 397 l0 380 93 86 92 86 163 2 c110 2 163 -1 163 -8z m-4210
-187 l0 -75 -52 3 -53 3 -3 59 c-4 82 -1 86 58 86 l50 0 0 -76z m-840 -231 l0
-33 -79 0 -79 0 -4 30 c-3 17 -3 32 -1 33 1 2 39 3 83 3 l80 -1 0 -32z m8
-150 l-3 -88 -50 -5 c-27 -3 -68 -3 -90 0 l-40 5 -3 88 -2 87 95 0 96 0 -3
-87z m-666 -30 l3 -88 69 -5 c43 -3 71 -10 74 -17 3 -10 -20 -13 -92 -13 l-96
0 0 98 c0 100 3 112 26 112 10 0 14 -24 16 -87z m728 -18 l0 -105 -90 0 c-73
0 -90 3 -90 15 0 12 14 15 70 15 l70 0 0 83 c0 85 3 97 27 97 10 0 13 -24 13
-105z m-271 20 c5 -27 7 -54 4 -62 -7 -17 -43 -17 -43 1 0 7 -3 34 -6 59 -6
39 -4 46 12 49 25 6 23 9 33 -47z m905 -76 c12 -61 8 -89 -14 -89 -11 0 -20 3
-20 8 -1 4 -5 27 -10 52 -9 51 -6 60 19 60 13 0 21 -10 25 -31z m276 20 c52
-6 275 -14 495 -18 l400 -6 3 -107 3 -108 -281 0 -280 0 0 -374 c0 -323 2
-375 15 -380 34 -13 12 -26 -45 -26 l-60 0 0 -335 0 -335 60 0 60 0 0 -60 0
-59 -57 -3 -58 -3 -5 -75 -5 -75 -77 -3 -78 -3 0 86 0 85 -95 0 -95 0 0 85 0
85 -115 0 c-92 0 -115 3 -115 14 0 8 7 16 15 20 13 5 15 41 15 239 l0 234
-119 6 c-65 3 -175 3 -244 0 l-125 -6 -66 131 c-61 122 -66 137 -66 196 0 63
-1 65 -27 68 -17 2 -29 10 -31 21 -3 16 9 17 145 17 94 0 153 -4 160 -11 10
-10 82 -9 326 7 l87 5 0 343 c0 188 3 346 7 349 10 10 146 8 253 -4z m1040
-114 l0 -65 -60 0 -60 0 0 65 0 65 60 0 60 0 0 -65z m-130 -499 c0 -151 3
-186 15 -196 21 -18 20 -60 -2 -61 -10 0 -89 0 -175 1 l-158 2 0 -177 c0 -137
-3 -176 -12 -173 -9 3 -14 35 -16 101 -3 96 -3 97 -27 97 -27 0 -34 15 -10 23
11 5 14 32 14 144 0 76 0 159 0 186 l1 47 155 0 155 0 0 95 0 95 30 0 30 0 0
-184z m-2022 -93 c-3 -16 -20 -18 -156 -21 l-152 -3 0 -164 0 -165 -154 0
-153 0 -7 61 c-3 34 -6 113 -6 175 0 69 -4 114 -10 114 -5 0 -10 5 -10 10 0 6
115 10 326 10 305 0 325 -1 322 -17z m-20 -93 c-3 -58 -4 -60 -31 -60 -16 0
-35 -7 -43 -15 -32 -31 -40 -18 -36 55 4 58 2 70 -11 70 -12 0 -17 -13 -19
-52 l-3 -53 -52 -3 -53 -3 0 60 0 61 126 0 125 0 -3 -60z m-188 -74 c0 -2 -7
-7 -16 -10 -8 -3 -12 -2 -9 4 6 10 25 14 25 6z m43 -3 c-7 -2 -19 -2 -25 0 -7
3 -2 5 12 5 14 0 19 -2 13 -5z m380 -59 c15 -31 23 -54 17 -52 -13 4 -62 108
-52 108 4 0 20 -25 35 -56z m-333 10 c0 -12 -12 -14 -62 -12 -78 4 -82 21 -8
28 63 6 70 5 70 -16z m396 -135 c14 -28 23 -53 20 -56 -4 -5 -56 89 -56 102 0
15 12 -1 36 -46z m1834 -75 c0 -20 -5 -24 -29 -24 -22 0 -30 5 -33 24 -4 20 0
26 16 28 33 6 46 -2 46 -28z m-2492 -361 c78 -6 82 -7 82 -29 0 -23 -3 -24
-77 -24 -124 0 -183 10 -183 30 0 9 3 20 7 23 8 9 64 9 171 0z m502 -33 c0
-18 -7 -20 -65 -20 -58 0 -65 2 -65 20 0 18 7 20 65 20 58 0 65 -2 65 -20z
m148 -7 c3 -10 -13 -13 -57 -13 -48 0 -61 3 -61 15 0 13 11 15 57 13 34 -2 58
-8 61 -15z m1432 -128 l0 -95 350 0 350 0 0 -30 0 -30 -90 0 -90 0 0 -225 0
-225 40 0 40 0 0 -60 0 -60 -40 0 -40 0 0 -125 0 -125 95 0 95 0 0 -30 0 -30
-160 0 -160 0 0 -55 0 -55 -80 0 -80 0 0 55 0 54 -157 3 -158 3 -3 63 c-3 61
-3 62 -32 62 -37 0 -45 14 -23 40 13 15 29 20 65 20 l48 0 0 470 c0 411 2 470
15 470 12 0 15 -17 15 -95z m-470 -680 l0 -165 55 0 c41 0 55 -4 55 -14 0 -8
5 -16 12 -18 21 -7 -3 -28 -33 -28 l-29 0 0 -315 0 -315 100 0 100 0 0 65 0
66 63 -3 62 -3 0 -62 0 -63 227 0 228 0 100 -46 100 -47 0 -93 0 -94 -30 0
-30 0 0 -409 0 -410 28 -3 27 -3 0 -95 0 -95 -70 -37 c-69 -37 -72 -37 -182
-38 -108 0 -112 1 -115 23 l-3 22 -397 3 -398 2 0 30 c0 25 4 30 25 30 24 0
25 2 25 68 l0 69 -62 24 -63 25 -3 217 c-2 181 -5 219 -17 223 -13 5 -15 40
-15 215 l0 209 70 0 70 0 0 120 0 120 -115 0 -115 0 0 243 c1 190 5 260 18
327 l18 85 134 5 135 5 3 163 c1 97 6 162 12 162 6 0 10 -64 10 -165z m5118
-412 l-3 -98 -367 -3 -368 -2 0 -565 0 -565 -140 0 c-118 0 -140 2 -140 15 0
13 -21 15 -130 15 -109 0 -130 -2 -130 -15 0 -11 -12 -15 -50 -15 -37 0 -50 4
-50 14 0 18 -47 22 -172 18 -68 -3 -88 -7 -88 -18 0 -12 -29 -14 -170 -14
l-170 0 0 -189 c0 -116 4 -192 10 -196 13 -8 13 -118 1 -131 -6 -5 -11 -31
-13 -59 l-3 -50 -148 -3 -147 -3 2 173 3 173 48 3 c36 2 47 7 48 20 0 9 1 92
2 184 l2 167 -100 3 -100 3 -5 70 c-3 39 -3 108 0 155 l5 85 128 3 127 3 0
124 0 125 65 0 65 0 0 -124 0 -124 560 -1 560 0 0 453 c0 249 3 456 7 459 3 4
199 7 435 7 l429 0 -3 -97z m-2728 -217 c0 -26 -5 -35 -22 -40 -39 -10 -45 -7
-52 25 -8 41 -2 49 40 49 32 0 34 -2 34 -34z m-22 -103 c2 -25 -1 -32 -20 -37
-43 -11 -48 -8 -48 34 0 39 1 40 33 36 27 -3 32 -7 35 -33z m42 -129 l0 -65
-77 0 c-162 1 -187 2 -195 7 -9 6 -11 85 -2 107 4 11 32 14 140 15 l134 1 0
-65z m320 -493 c0 -25 -4 -29 -37 -34 -20 -4 -39 -5 -41 -2 -2 2 -1 17 3 34 6
27 11 31 41 31 31 0 34 -3 34 -29z m-1119 -470 c12 -57 5 -62 -80 -59 l-76 3
-3 48 -3 48 78 -3 77 -3 7 -34z m535 -41 c53 -55 58 -67 32 -84 -15 -9 -27 -2
-75 46 -55 56 -57 58 -38 72 11 9 23 16 26 16 4 0 28 -23 55 -50z m1339 -230
l0 -55 -52 -3 -53 -3 0 61 0 61 53 -3 52 -3 0 -55z m370 0 l0 -55 -57 -3 -58
-3 0 54 c0 29 3 57 7 61 4 4 30 6 58 4 l50 -3 0 -55z m360 0 l0 -55 -55 0 -55
0 -3 44 c-5 67 0 72 60 69 l53 -3 0 -55z m-3390 -194 c0 -20 -3 -36 -7 -36 -5
0 -42 0 -83 0 l-75 0 0 34 c0 19 6 37 13 40 6 2 44 3 82 2 l70 -3 0 -37z
m1250 -23 c26 -12 35 -22 32 -35 -3 -9 0 -19 7 -22 6 -2 4 -5 -5 -5 -23 -1
-57 -42 -61 -73 -2 -15 -8 -31 -13 -35 -4 -4 -5 -1 -1 7 5 9 2 8 -7 -2 -18
-23 -18 -23 -57 11 l-33 28 40 54 c22 30 42 62 46 72 8 21 8 21 52 0z m-1083
-459 c14 -77 12 -81 -36 -93 -71 -18 -74 -16 -81 37 -4 26 -9 54 -11 63 -6 21
31 37 81 35 38 -2 40 -4 47 -42z"/>
</g>
</svg>
